<mxfile host="Electron" agent="Mozilla/5.0 (Windows NT 10.0; Win64; x64) AppleWebKit/537.36 (KHTML, like Gecko) draw.io/26.0.4 Chrome/128.0.6613.186 Electron/32.2.5 Safari/537.36" version="26.0.4" pages="3">
  <diagram name="use-case-diagram" id="xXcpw8Cwycd0y3BfpgWa">
    <mxGraphModel dx="1744" dy="2276" grid="1" gridSize="10" guides="1" tooltips="1" connect="1" arrows="1" fold="1" page="1" pageScale="1" pageWidth="850" pageHeight="1100" math="0" shadow="0">
      <root>
        <mxCell id="0" />
        <mxCell id="1" parent="0" />
        <mxCell id="fSJDlGwZ3fynIPUPDxGs-24" style="edgeStyle=none;shape=connector;rounded=0;orthogonalLoop=1;jettySize=auto;html=1;strokeColor=default;align=center;verticalAlign=middle;fontFamily=Helvetica;fontSize=11;fontColor=default;labelBackgroundColor=default;endArrow=none;endFill=0;" parent="1" source="3LhN4c879SK9sG2BPAm--1" target="3LhN4c879SK9sG2BPAm--65" edge="1">
          <mxGeometry relative="1" as="geometry">
            <Array as="points">
              <mxPoint x="340.14" y="1520" />
            </Array>
          </mxGeometry>
        </mxCell>
        <mxCell id="3LhN4c879SK9sG2BPAm--1" value="Staff" style="shape=umlActor;html=1;verticalLabelPosition=bottom;verticalAlign=top;align=center;" parent="1" vertex="1">
          <mxGeometry x="250.14" y="1170" width="50" height="100" as="geometry" />
        </mxCell>
        <mxCell id="3LhN4c879SK9sG2BPAm--2" value="Login" style="ellipse;whiteSpace=wrap;html=1;" parent="1" vertex="1">
          <mxGeometry x="480.14" y="70" width="140" height="70" as="geometry" />
        </mxCell>
        <mxCell id="3LhN4c879SK9sG2BPAm--21" style="edgeStyle=none;shape=connector;rounded=0;orthogonalLoop=1;jettySize=auto;html=1;strokeColor=default;align=center;verticalAlign=middle;fontFamily=Helvetica;fontSize=11;fontColor=default;labelBackgroundColor=default;endArrow=none;endFill=0;" parent="1" source="3LhN4c879SK9sG2BPAm--7" target="3LhN4c879SK9sG2BPAm--17" edge="1">
          <mxGeometry relative="1" as="geometry" />
        </mxCell>
        <mxCell id="fSJDlGwZ3fynIPUPDxGs-26" style="edgeStyle=orthogonalEdgeStyle;shape=connector;rounded=0;orthogonalLoop=1;jettySize=auto;html=1;strokeColor=default;align=center;verticalAlign=middle;fontFamily=Helvetica;fontSize=11;fontColor=default;labelBackgroundColor=default;endArrow=none;endFill=0;" parent="1" source="3LhN4c879SK9sG2BPAm--7" target="3LhN4c879SK9sG2BPAm--96" edge="1">
          <mxGeometry relative="1" as="geometry">
            <Array as="points">
              <mxPoint x="100.13999999999999" y="110" />
              <mxPoint x="100.13999999999999" y="2025" />
            </Array>
          </mxGeometry>
        </mxCell>
        <mxCell id="3LhN4c879SK9sG2BPAm--7" value="User" style="shape=umlActor;html=1;verticalLabelPosition=bottom;verticalAlign=top;align=center;" parent="1" vertex="1">
          <mxGeometry x="220.14" y="60" width="50" height="100" as="geometry" />
        </mxCell>
        <mxCell id="3LhN4c879SK9sG2BPAm--120" style="edgeStyle=none;shape=connector;rounded=0;orthogonalLoop=1;jettySize=auto;html=1;strokeColor=default;align=center;verticalAlign=middle;fontFamily=Helvetica;fontSize=11;fontColor=default;labelBackgroundColor=default;endArrow=none;endFill=0;" parent="1" source="3LhN4c879SK9sG2BPAm--8" target="3LhN4c879SK9sG2BPAm--22" edge="1">
          <mxGeometry relative="1" as="geometry">
            <Array as="points">
              <mxPoint x="350.14" y="410" />
            </Array>
          </mxGeometry>
        </mxCell>
        <mxCell id="3LhN4c879SK9sG2BPAm--121" style="edgeStyle=none;shape=connector;rounded=0;orthogonalLoop=1;jettySize=auto;html=1;strokeColor=default;align=center;verticalAlign=middle;fontFamily=Helvetica;fontSize=11;fontColor=default;labelBackgroundColor=default;endArrow=none;endFill=0;" parent="1" source="3LhN4c879SK9sG2BPAm--8" target="3LhN4c879SK9sG2BPAm--30" edge="1">
          <mxGeometry relative="1" as="geometry" />
        </mxCell>
        <mxCell id="3LhN4c879SK9sG2BPAm--122" style="edgeStyle=none;shape=connector;rounded=0;orthogonalLoop=1;jettySize=auto;html=1;strokeColor=default;align=center;verticalAlign=middle;fontFamily=Helvetica;fontSize=11;fontColor=default;labelBackgroundColor=default;endArrow=none;endFill=0;" parent="1" source="3LhN4c879SK9sG2BPAm--8" target="3LhN4c879SK9sG2BPAm--37" edge="1">
          <mxGeometry relative="1" as="geometry" />
        </mxCell>
        <mxCell id="3LhN4c879SK9sG2BPAm--123" style="edgeStyle=none;shape=connector;rounded=0;orthogonalLoop=1;jettySize=auto;html=1;strokeColor=default;align=center;verticalAlign=middle;fontFamily=Helvetica;fontSize=11;fontColor=default;labelBackgroundColor=default;endArrow=none;endFill=0;" parent="1" source="3LhN4c879SK9sG2BPAm--8" target="3LhN4c879SK9sG2BPAm--44" edge="1">
          <mxGeometry relative="1" as="geometry">
            <Array as="points">
              <mxPoint x="360.14" y="880" />
            </Array>
          </mxGeometry>
        </mxCell>
        <mxCell id="3LhN4c879SK9sG2BPAm--8" value="Admin" style="shape=umlActor;html=1;verticalLabelPosition=bottom;verticalAlign=top;align=center;" parent="1" vertex="1">
          <mxGeometry x="240.14" y="570" width="50" height="100" as="geometry" />
        </mxCell>
        <mxCell id="fSJDlGwZ3fynIPUPDxGs-21" style="edgeStyle=none;shape=connector;rounded=0;orthogonalLoop=1;jettySize=auto;html=1;strokeColor=default;align=center;verticalAlign=middle;fontFamily=Helvetica;fontSize=11;fontColor=default;labelBackgroundColor=default;endArrow=none;endFill=0;" parent="1" source="3LhN4c879SK9sG2BPAm--10" target="3LhN4c879SK9sG2BPAm--58" edge="1">
          <mxGeometry relative="1" as="geometry">
            <Array as="points">
              <mxPoint x="380.14" y="1500" />
            </Array>
          </mxGeometry>
        </mxCell>
        <mxCell id="fSJDlGwZ3fynIPUPDxGs-22" style="edgeStyle=none;shape=connector;rounded=0;orthogonalLoop=1;jettySize=auto;html=1;strokeColor=default;align=center;verticalAlign=middle;fontFamily=Helvetica;fontSize=11;fontColor=default;labelBackgroundColor=default;endArrow=none;endFill=0;" parent="1" source="3LhN4c879SK9sG2BPAm--10" target="3LhN4c879SK9sG2BPAm--65" edge="1">
          <mxGeometry relative="1" as="geometry" />
        </mxCell>
        <mxCell id="fSJDlGwZ3fynIPUPDxGs-23" style="edgeStyle=none;shape=connector;rounded=0;orthogonalLoop=1;jettySize=auto;html=1;strokeColor=default;align=center;verticalAlign=middle;fontFamily=Helvetica;fontSize=11;fontColor=default;labelBackgroundColor=default;endArrow=none;endFill=0;" parent="1" source="3LhN4c879SK9sG2BPAm--10" target="3LhN4c879SK9sG2BPAm--73" edge="1">
          <mxGeometry relative="1" as="geometry" />
        </mxCell>
        <mxCell id="3LhN4c879SK9sG2BPAm--10" value="Officer" style="shape=umlActor;html=1;verticalLabelPosition=bottom;verticalAlign=top;align=center;" parent="1" vertex="1">
          <mxGeometry x="250.14" y="1640" width="50" height="100" as="geometry" />
        </mxCell>
        <mxCell id="3LhN4c879SK9sG2BPAm--11" value="" style="edgeStyle=orthogonalEdgeStyle;html=1;endSize=12;endArrow=block;endFill=0;rounded=0;" parent="1" source="3LhN4c879SK9sG2BPAm--8" target="3LhN4c879SK9sG2BPAm--7" edge="1">
          <mxGeometry width="160" relative="1" as="geometry">
            <mxPoint x="460.14" y="370" as="sourcePoint" />
            <mxPoint x="310.14" y="170" as="targetPoint" />
            <Array as="points">
              <mxPoint x="190.14" y="620" />
              <mxPoint x="190.14" y="140" />
            </Array>
          </mxGeometry>
        </mxCell>
        <mxCell id="3LhN4c879SK9sG2BPAm--12" value="" style="edgeStyle=orthogonalEdgeStyle;html=1;endSize=12;endArrow=block;endFill=0;rounded=0;" parent="1" source="3LhN4c879SK9sG2BPAm--10" target="3LhN4c879SK9sG2BPAm--7" edge="1">
          <mxGeometry width="160" relative="1" as="geometry">
            <mxPoint x="260.14" y="233" as="sourcePoint" />
            <mxPoint x="220.14" y="240" as="targetPoint" />
            <Array as="points">
              <mxPoint x="140.14" y="1690" />
              <mxPoint x="140.14" y="90" />
            </Array>
          </mxGeometry>
        </mxCell>
        <mxCell id="3LhN4c879SK9sG2BPAm--13" value="" style="edgeStyle=orthogonalEdgeStyle;html=1;endSize=12;endArrow=block;endFill=0;rounded=0;" parent="1" source="3LhN4c879SK9sG2BPAm--1" target="3LhN4c879SK9sG2BPAm--7" edge="1">
          <mxGeometry width="160" relative="1" as="geometry">
            <mxPoint x="270.14" y="243" as="sourcePoint" />
            <mxPoint x="340.14" y="230" as="targetPoint" />
            <Array as="points">
              <mxPoint x="170.14" y="1220" />
              <mxPoint x="170.14" y="120" />
            </Array>
          </mxGeometry>
        </mxCell>
        <mxCell id="3LhN4c879SK9sG2BPAm--17" value="Register" style="ellipse;whiteSpace=wrap;html=1;" parent="1" vertex="1">
          <mxGeometry x="480.14" y="-60" width="140" height="70" as="geometry" />
        </mxCell>
        <mxCell id="3LhN4c879SK9sG2BPAm--22" value="Manage User" style="ellipse;whiteSpace=wrap;html=1;" parent="1" vertex="1">
          <mxGeometry x="490.14" y="260" width="140" height="70" as="geometry" />
        </mxCell>
        <mxCell id="3LhN4c879SK9sG2BPAm--30" value="Manage Employee" style="ellipse;whiteSpace=wrap;html=1;" parent="1" vertex="1">
          <mxGeometry x="490.14" y="470" width="140" height="70" as="geometry" />
        </mxCell>
        <mxCell id="3LhN4c879SK9sG2BPAm--31" value="Add" style="ellipse;whiteSpace=wrap;html=1;" parent="1" vertex="1">
          <mxGeometry x="470.14" y="370" width="80" height="50" as="geometry" />
        </mxCell>
        <mxCell id="3LhN4c879SK9sG2BPAm--32" value="Edit" style="ellipse;whiteSpace=wrap;html=1;" parent="1" vertex="1">
          <mxGeometry x="570.14" y="360" width="80" height="50" as="geometry" />
        </mxCell>
        <mxCell id="3LhN4c879SK9sG2BPAm--33" value="Delete" style="ellipse;whiteSpace=wrap;html=1;" parent="1" vertex="1">
          <mxGeometry x="650.14" y="400" width="80" height="50" as="geometry" />
        </mxCell>
        <mxCell id="3LhN4c879SK9sG2BPAm--34" value="&amp;lt;&amp;lt;extend&amp;gt;&amp;gt;" style="html=1;verticalAlign=bottom;labelBackgroundColor=none;endArrow=open;endFill=0;dashed=1;rounded=0;strokeColor=default;align=center;fontFamily=Helvetica;fontSize=11;fontColor=default;" parent="1" source="3LhN4c879SK9sG2BPAm--30" target="3LhN4c879SK9sG2BPAm--31" edge="1">
          <mxGeometry width="160" relative="1" as="geometry">
            <mxPoint x="470.14" y="470" as="sourcePoint" />
            <mxPoint x="630.14" y="470" as="targetPoint" />
          </mxGeometry>
        </mxCell>
        <mxCell id="3LhN4c879SK9sG2BPAm--35" value="&amp;lt;&amp;lt;extend&amp;gt;&amp;gt;" style="html=1;verticalAlign=bottom;labelBackgroundColor=none;endArrow=open;endFill=0;dashed=1;rounded=0;strokeColor=default;align=center;fontFamily=Helvetica;fontSize=11;fontColor=default;" parent="1" source="3LhN4c879SK9sG2BPAm--30" target="3LhN4c879SK9sG2BPAm--32" edge="1">
          <mxGeometry width="160" relative="1" as="geometry">
            <mxPoint x="536.14" y="484" as="sourcePoint" />
            <mxPoint x="493.14" y="446" as="targetPoint" />
          </mxGeometry>
        </mxCell>
        <mxCell id="3LhN4c879SK9sG2BPAm--36" value="&amp;lt;&amp;lt;extend&amp;gt;&amp;gt;" style="html=1;verticalAlign=bottom;labelBackgroundColor=none;endArrow=open;endFill=0;dashed=1;rounded=0;strokeColor=default;align=center;fontFamily=Helvetica;fontSize=11;fontColor=default;" parent="1" source="3LhN4c879SK9sG2BPAm--30" target="3LhN4c879SK9sG2BPAm--33" edge="1">
          <mxGeometry width="160" relative="1" as="geometry">
            <mxPoint x="546.14" y="494" as="sourcePoint" />
            <mxPoint x="503.14" y="456" as="targetPoint" />
          </mxGeometry>
        </mxCell>
        <mxCell id="3LhN4c879SK9sG2BPAm--37" value="Manage User Role" style="ellipse;whiteSpace=wrap;html=1;" parent="1" vertex="1">
          <mxGeometry x="490.14" y="670" width="140" height="70" as="geometry" />
        </mxCell>
        <mxCell id="3LhN4c879SK9sG2BPAm--38" value="Add" style="ellipse;whiteSpace=wrap;html=1;" parent="1" vertex="1">
          <mxGeometry x="470.14" y="560" width="80" height="50" as="geometry" />
        </mxCell>
        <mxCell id="3LhN4c879SK9sG2BPAm--39" value="Edit" style="ellipse;whiteSpace=wrap;html=1;" parent="1" vertex="1">
          <mxGeometry x="560.14" y="560" width="80" height="50" as="geometry" />
        </mxCell>
        <mxCell id="3LhN4c879SK9sG2BPAm--40" value="Delete" style="ellipse;whiteSpace=wrap;html=1;" parent="1" vertex="1">
          <mxGeometry x="650.14" y="590" width="80" height="50" as="geometry" />
        </mxCell>
        <mxCell id="3LhN4c879SK9sG2BPAm--41" value="&amp;lt;&amp;lt;extend&amp;gt;&amp;gt;" style="html=1;verticalAlign=bottom;labelBackgroundColor=none;endArrow=open;endFill=0;dashed=1;rounded=0;strokeColor=default;align=center;fontFamily=Helvetica;fontSize=11;fontColor=default;" parent="1" source="3LhN4c879SK9sG2BPAm--37" target="3LhN4c879SK9sG2BPAm--38" edge="1">
          <mxGeometry width="160" relative="1" as="geometry">
            <mxPoint x="470.14" y="670" as="sourcePoint" />
            <mxPoint x="630.14" y="670" as="targetPoint" />
          </mxGeometry>
        </mxCell>
        <mxCell id="3LhN4c879SK9sG2BPAm--42" value="&amp;lt;&amp;lt;extend&amp;gt;&amp;gt;" style="html=1;verticalAlign=bottom;labelBackgroundColor=none;endArrow=open;endFill=0;dashed=1;rounded=0;strokeColor=default;align=center;fontFamily=Helvetica;fontSize=11;fontColor=default;" parent="1" source="3LhN4c879SK9sG2BPAm--37" target="3LhN4c879SK9sG2BPAm--39" edge="1">
          <mxGeometry width="160" relative="1" as="geometry">
            <mxPoint x="536.14" y="684" as="sourcePoint" />
            <mxPoint x="493.14" y="646" as="targetPoint" />
          </mxGeometry>
        </mxCell>
        <mxCell id="3LhN4c879SK9sG2BPAm--43" value="&amp;lt;&amp;lt;extend&amp;gt;&amp;gt;" style="html=1;verticalAlign=bottom;labelBackgroundColor=none;endArrow=open;endFill=0;dashed=1;rounded=0;strokeColor=default;align=center;fontFamily=Helvetica;fontSize=11;fontColor=default;" parent="1" source="3LhN4c879SK9sG2BPAm--37" target="3LhN4c879SK9sG2BPAm--40" edge="1">
          <mxGeometry width="160" relative="1" as="geometry">
            <mxPoint x="546.14" y="694" as="sourcePoint" />
            <mxPoint x="503.14" y="656" as="targetPoint" />
          </mxGeometry>
        </mxCell>
        <mxCell id="3LhN4c879SK9sG2BPAm--44" value="Manage Department" style="ellipse;whiteSpace=wrap;html=1;" parent="1" vertex="1">
          <mxGeometry x="490.14" y="890" width="140" height="70" as="geometry" />
        </mxCell>
        <mxCell id="3LhN4c879SK9sG2BPAm--45" value="Add" style="ellipse;whiteSpace=wrap;html=1;" parent="1" vertex="1">
          <mxGeometry x="495.14" y="770" width="80" height="50" as="geometry" />
        </mxCell>
        <mxCell id="3LhN4c879SK9sG2BPAm--46" value="Edit" style="ellipse;whiteSpace=wrap;html=1;" parent="1" vertex="1">
          <mxGeometry x="600.14" y="770" width="80" height="50" as="geometry" />
        </mxCell>
        <mxCell id="3LhN4c879SK9sG2BPAm--47" value="Delete" style="ellipse;whiteSpace=wrap;html=1;" parent="1" vertex="1">
          <mxGeometry x="700.14" y="920" width="80" height="50" as="geometry" />
        </mxCell>
        <mxCell id="3LhN4c879SK9sG2BPAm--48" value="&amp;lt;&amp;lt;extend&amp;gt;&amp;gt;" style="html=1;verticalAlign=bottom;labelBackgroundColor=none;endArrow=open;endFill=0;dashed=1;rounded=0;strokeColor=default;align=center;fontFamily=Helvetica;fontSize=11;fontColor=default;" parent="1" source="3LhN4c879SK9sG2BPAm--44" target="3LhN4c879SK9sG2BPAm--45" edge="1">
          <mxGeometry width="160" relative="1" as="geometry">
            <mxPoint x="470.14" y="890" as="sourcePoint" />
            <mxPoint x="630.14" y="890" as="targetPoint" />
          </mxGeometry>
        </mxCell>
        <mxCell id="3LhN4c879SK9sG2BPAm--49" value="&amp;lt;&amp;lt;extend&amp;gt;&amp;gt;" style="html=1;verticalAlign=bottom;labelBackgroundColor=none;endArrow=open;endFill=0;dashed=1;rounded=0;strokeColor=default;align=center;fontFamily=Helvetica;fontSize=11;fontColor=default;" parent="1" source="3LhN4c879SK9sG2BPAm--44" target="3LhN4c879SK9sG2BPAm--46" edge="1">
          <mxGeometry width="160" relative="1" as="geometry">
            <mxPoint x="536.14" y="904" as="sourcePoint" />
            <mxPoint x="493.14" y="866" as="targetPoint" />
          </mxGeometry>
        </mxCell>
        <mxCell id="3LhN4c879SK9sG2BPAm--50" value="&amp;lt;&amp;lt;extend&amp;gt;&amp;gt;" style="html=1;verticalAlign=bottom;labelBackgroundColor=none;endArrow=open;endFill=0;dashed=1;rounded=0;strokeColor=default;align=center;fontFamily=Helvetica;fontSize=11;fontColor=default;" parent="1" source="3LhN4c879SK9sG2BPAm--44" target="3LhN4c879SK9sG2BPAm--47" edge="1">
          <mxGeometry width="160" relative="1" as="geometry">
            <mxPoint x="546.14" y="914" as="sourcePoint" />
            <mxPoint x="503.14" y="876" as="targetPoint" />
          </mxGeometry>
        </mxCell>
        <mxCell id="3LhN4c879SK9sG2BPAm--51" value="Manage Employee Position" style="ellipse;whiteSpace=wrap;html=1;" parent="1" vertex="1">
          <mxGeometry x="490.14" y="1110" width="140" height="70" as="geometry" />
        </mxCell>
        <mxCell id="3LhN4c879SK9sG2BPAm--52" value="Add" style="ellipse;whiteSpace=wrap;html=1;" parent="1" vertex="1">
          <mxGeometry x="460.14" y="1010" width="80" height="50" as="geometry" />
        </mxCell>
        <mxCell id="3LhN4c879SK9sG2BPAm--53" value="Edit" style="ellipse;whiteSpace=wrap;html=1;" parent="1" vertex="1">
          <mxGeometry x="560.14" y="1010" width="80" height="50" as="geometry" />
        </mxCell>
        <mxCell id="3LhN4c879SK9sG2BPAm--54" value="Delete" style="ellipse;whiteSpace=wrap;html=1;" parent="1" vertex="1">
          <mxGeometry x="660.14" y="1050" width="80" height="50" as="geometry" />
        </mxCell>
        <mxCell id="3LhN4c879SK9sG2BPAm--55" value="&amp;lt;&amp;lt;extend&amp;gt;&amp;gt;" style="html=1;verticalAlign=bottom;labelBackgroundColor=none;endArrow=open;endFill=0;dashed=1;rounded=0;strokeColor=default;align=center;fontFamily=Helvetica;fontSize=11;fontColor=default;" parent="1" source="3LhN4c879SK9sG2BPAm--51" target="3LhN4c879SK9sG2BPAm--52" edge="1">
          <mxGeometry width="160" relative="1" as="geometry">
            <mxPoint x="470.14" y="1110" as="sourcePoint" />
            <mxPoint x="630.14" y="1110" as="targetPoint" />
          </mxGeometry>
        </mxCell>
        <mxCell id="3LhN4c879SK9sG2BPAm--56" value="&amp;lt;&amp;lt;extend&amp;gt;&amp;gt;" style="html=1;verticalAlign=bottom;labelBackgroundColor=none;endArrow=open;endFill=0;dashed=1;rounded=0;strokeColor=default;align=center;fontFamily=Helvetica;fontSize=11;fontColor=default;" parent="1" source="3LhN4c879SK9sG2BPAm--51" target="3LhN4c879SK9sG2BPAm--53" edge="1">
          <mxGeometry width="160" relative="1" as="geometry">
            <mxPoint x="536.14" y="1124" as="sourcePoint" />
            <mxPoint x="493.14" y="1086" as="targetPoint" />
          </mxGeometry>
        </mxCell>
        <mxCell id="3LhN4c879SK9sG2BPAm--57" value="&amp;lt;&amp;lt;extend&amp;gt;&amp;gt;" style="html=1;verticalAlign=bottom;labelBackgroundColor=none;endArrow=open;endFill=0;dashed=1;rounded=0;strokeColor=default;align=center;fontFamily=Helvetica;fontSize=11;fontColor=default;" parent="1" source="3LhN4c879SK9sG2BPAm--51" target="3LhN4c879SK9sG2BPAm--54" edge="1">
          <mxGeometry width="160" relative="1" as="geometry">
            <mxPoint x="546.14" y="1134" as="sourcePoint" />
            <mxPoint x="503.14" y="1096" as="targetPoint" />
          </mxGeometry>
        </mxCell>
        <mxCell id="3LhN4c879SK9sG2BPAm--58" value="Manage Employee Schedule" style="ellipse;whiteSpace=wrap;html=1;" parent="1" vertex="1">
          <mxGeometry x="490.14" y="1340" width="140" height="70" as="geometry" />
        </mxCell>
        <mxCell id="3LhN4c879SK9sG2BPAm--59" value="Propose" style="ellipse;whiteSpace=wrap;html=1;" parent="1" vertex="1">
          <mxGeometry x="530.14" y="1240" width="80" height="50" as="geometry" />
        </mxCell>
        <mxCell id="3LhN4c879SK9sG2BPAm--60" value="Approval" style="ellipse;whiteSpace=wrap;html=1;" parent="1" vertex="1">
          <mxGeometry x="630.14" y="1260" width="80" height="50" as="geometry" />
        </mxCell>
        <mxCell id="3LhN4c879SK9sG2BPAm--62" value="&amp;lt;&amp;lt;extend&amp;gt;&amp;gt;" style="html=1;verticalAlign=bottom;labelBackgroundColor=none;endArrow=open;endFill=0;dashed=1;rounded=0;strokeColor=default;align=center;fontFamily=Helvetica;fontSize=11;fontColor=default;" parent="1" source="3LhN4c879SK9sG2BPAm--58" target="3LhN4c879SK9sG2BPAm--59" edge="1">
          <mxGeometry width="160" relative="1" as="geometry">
            <mxPoint x="470.14" y="1340" as="sourcePoint" />
            <mxPoint x="630.14" y="1340" as="targetPoint" />
          </mxGeometry>
        </mxCell>
        <mxCell id="3LhN4c879SK9sG2BPAm--63" value="&amp;lt;&amp;lt;extend&amp;gt;&amp;gt;" style="html=1;verticalAlign=bottom;labelBackgroundColor=none;endArrow=open;endFill=0;dashed=1;rounded=0;strokeColor=default;align=center;fontFamily=Helvetica;fontSize=11;fontColor=default;" parent="1" source="3LhN4c879SK9sG2BPAm--58" target="3LhN4c879SK9sG2BPAm--60" edge="1">
          <mxGeometry width="160" relative="1" as="geometry">
            <mxPoint x="536.14" y="1354" as="sourcePoint" />
            <mxPoint x="493.14" y="1316" as="targetPoint" />
          </mxGeometry>
        </mxCell>
        <mxCell id="3LhN4c879SK9sG2BPAm--65" value="Manage Employee Leave" style="ellipse;whiteSpace=wrap;html=1;" parent="1" vertex="1">
          <mxGeometry x="490.14" y="1580" width="140" height="70" as="geometry" />
        </mxCell>
        <mxCell id="3LhN4c879SK9sG2BPAm--66" value="Request" style="ellipse;whiteSpace=wrap;html=1;" parent="1" vertex="1">
          <mxGeometry x="510.14" y="1480" width="80" height="50" as="geometry" />
        </mxCell>
        <mxCell id="3LhN4c879SK9sG2BPAm--67" value="Approval" style="ellipse;whiteSpace=wrap;html=1;" parent="1" vertex="1">
          <mxGeometry x="620.14" y="1500" width="80" height="50" as="geometry" />
        </mxCell>
        <mxCell id="3LhN4c879SK9sG2BPAm--69" value="&amp;lt;&amp;lt;extend&amp;gt;&amp;gt;" style="html=1;verticalAlign=bottom;labelBackgroundColor=none;endArrow=open;endFill=0;dashed=1;rounded=0;strokeColor=default;align=center;fontFamily=Helvetica;fontSize=11;fontColor=default;" parent="1" source="3LhN4c879SK9sG2BPAm--65" target="3LhN4c879SK9sG2BPAm--66" edge="1">
          <mxGeometry width="160" relative="1" as="geometry">
            <mxPoint x="470.14" y="1580" as="sourcePoint" />
            <mxPoint x="630.14" y="1580" as="targetPoint" />
          </mxGeometry>
        </mxCell>
        <mxCell id="3LhN4c879SK9sG2BPAm--70" value="&amp;lt;&amp;lt;extend&amp;gt;&amp;gt;" style="html=1;verticalAlign=bottom;labelBackgroundColor=none;endArrow=open;endFill=0;dashed=1;rounded=0;strokeColor=default;align=center;fontFamily=Helvetica;fontSize=11;fontColor=default;" parent="1" source="3LhN4c879SK9sG2BPAm--65" target="3LhN4c879SK9sG2BPAm--67" edge="1">
          <mxGeometry width="160" relative="1" as="geometry">
            <mxPoint x="536.14" y="1594" as="sourcePoint" />
            <mxPoint x="493.14" y="1556" as="targetPoint" />
          </mxGeometry>
        </mxCell>
        <mxCell id="3LhN4c879SK9sG2BPAm--73" value="Manage Report" style="ellipse;whiteSpace=wrap;html=1;" parent="1" vertex="1">
          <mxGeometry x="490.14" y="1790" width="140" height="70" as="geometry" />
        </mxCell>
        <mxCell id="3LhN4c879SK9sG2BPAm--74" value="Create" style="ellipse;whiteSpace=wrap;html=1;" parent="1" vertex="1">
          <mxGeometry x="600.14" y="1690" width="80" height="50" as="geometry" />
        </mxCell>
        <mxCell id="3LhN4c879SK9sG2BPAm--76" value="&amp;lt;&amp;lt;extend&amp;gt;&amp;gt;" style="html=1;verticalAlign=bottom;labelBackgroundColor=none;endArrow=open;endFill=0;dashed=1;rounded=0;strokeColor=default;align=center;fontFamily=Helvetica;fontSize=11;fontColor=default;" parent="1" source="3LhN4c879SK9sG2BPAm--73" target="3LhN4c879SK9sG2BPAm--74" edge="1">
          <mxGeometry width="160" relative="1" as="geometry">
            <mxPoint x="470.14" y="1790" as="sourcePoint" />
            <mxPoint x="630.14" y="1790" as="targetPoint" />
          </mxGeometry>
        </mxCell>
        <mxCell id="3LhN4c879SK9sG2BPAm--80" value="View" style="ellipse;whiteSpace=wrap;html=1;" parent="1" vertex="1">
          <mxGeometry x="415.14" y="1260" width="80" height="50" as="geometry" />
        </mxCell>
        <mxCell id="3LhN4c879SK9sG2BPAm--81" value="&amp;lt;&amp;lt;extend&amp;gt;&amp;gt;" style="html=1;verticalAlign=bottom;labelBackgroundColor=none;endArrow=open;endFill=0;dashed=1;rounded=0;strokeColor=default;align=center;fontFamily=Helvetica;fontSize=11;fontColor=default;" parent="1" source="3LhN4c879SK9sG2BPAm--58" target="3LhN4c879SK9sG2BPAm--80" edge="1">
          <mxGeometry width="160" relative="1" as="geometry">
            <mxPoint x="455.14" y="1371" as="sourcePoint" />
            <mxPoint x="540.14" y="1370" as="targetPoint" />
          </mxGeometry>
        </mxCell>
        <mxCell id="3LhN4c879SK9sG2BPAm--84" value="View" style="ellipse;whiteSpace=wrap;html=1;" parent="1" vertex="1">
          <mxGeometry x="380.14" y="420" width="80" height="50" as="geometry" />
        </mxCell>
        <mxCell id="3LhN4c879SK9sG2BPAm--85" value="&amp;lt;&amp;lt;extend&amp;gt;&amp;gt;" style="html=1;verticalAlign=bottom;labelBackgroundColor=none;endArrow=open;endFill=0;dashed=1;rounded=0;strokeColor=default;align=center;fontFamily=Helvetica;fontSize=11;fontColor=default;" parent="1" source="3LhN4c879SK9sG2BPAm--30" target="3LhN4c879SK9sG2BPAm--84" edge="1">
          <mxGeometry width="160" relative="1" as="geometry">
            <mxPoint x="490.14" y="540" as="sourcePoint" />
            <mxPoint x="594.14" y="536" as="targetPoint" />
          </mxGeometry>
        </mxCell>
        <mxCell id="3LhN4c879SK9sG2BPAm--86" value="View" style="ellipse;whiteSpace=wrap;html=1;" parent="1" vertex="1">
          <mxGeometry x="390.14" y="590" width="80" height="50" as="geometry" />
        </mxCell>
        <mxCell id="3LhN4c879SK9sG2BPAm--87" value="&amp;lt;&amp;lt;extend&amp;gt;&amp;gt;" style="html=1;verticalAlign=bottom;labelBackgroundColor=none;endArrow=open;endFill=0;dashed=1;rounded=0;strokeColor=default;align=center;fontFamily=Helvetica;fontSize=11;fontColor=default;" parent="1" source="3LhN4c879SK9sG2BPAm--37" target="3LhN4c879SK9sG2BPAm--86" edge="1">
          <mxGeometry width="160" relative="1" as="geometry">
            <mxPoint x="466.14" y="701" as="sourcePoint" />
            <mxPoint x="550.14" y="700" as="targetPoint" />
          </mxGeometry>
        </mxCell>
        <mxCell id="3LhN4c879SK9sG2BPAm--88" value="View" style="ellipse;whiteSpace=wrap;html=1;" parent="1" vertex="1">
          <mxGeometry x="410.14" y="800" width="80" height="50" as="geometry" />
        </mxCell>
        <mxCell id="3LhN4c879SK9sG2BPAm--89" value="&amp;lt;&amp;lt;extend&amp;gt;&amp;gt;" style="html=1;verticalAlign=bottom;labelBackgroundColor=none;endArrow=open;endFill=0;dashed=1;rounded=0;strokeColor=default;align=center;fontFamily=Helvetica;fontSize=11;fontColor=default;" parent="1" source="3LhN4c879SK9sG2BPAm--44" target="3LhN4c879SK9sG2BPAm--88" edge="1">
          <mxGeometry width="160" relative="1" as="geometry">
            <mxPoint x="550.14" y="901" as="sourcePoint" />
            <mxPoint x="524.14" y="858" as="targetPoint" />
          </mxGeometry>
        </mxCell>
        <mxCell id="3LhN4c879SK9sG2BPAm--90" value="View" style="ellipse;whiteSpace=wrap;html=1;" parent="1" vertex="1">
          <mxGeometry x="380.14" y="1060" width="80" height="50" as="geometry" />
        </mxCell>
        <mxCell id="3LhN4c879SK9sG2BPAm--91" value="&amp;lt;&amp;lt;extend&amp;gt;&amp;gt;" style="html=1;verticalAlign=bottom;labelBackgroundColor=none;endArrow=open;endFill=0;dashed=1;rounded=0;strokeColor=default;align=center;fontFamily=Helvetica;fontSize=11;fontColor=default;" parent="1" source="3LhN4c879SK9sG2BPAm--51" target="3LhN4c879SK9sG2BPAm--90" edge="1">
          <mxGeometry width="160" relative="1" as="geometry">
            <mxPoint x="552.14" y="1121" as="sourcePoint" />
            <mxPoint x="523.14" y="1069" as="targetPoint" />
          </mxGeometry>
        </mxCell>
        <mxCell id="3LhN4c879SK9sG2BPAm--92" value="View" style="ellipse;whiteSpace=wrap;html=1;" parent="1" vertex="1">
          <mxGeometry x="410.14" y="1500" width="80" height="50" as="geometry" />
        </mxCell>
        <mxCell id="3LhN4c879SK9sG2BPAm--93" value="&amp;lt;&amp;lt;extend&amp;gt;&amp;gt;" style="html=1;verticalAlign=bottom;labelBackgroundColor=none;endArrow=open;endFill=0;dashed=1;rounded=0;strokeColor=default;align=center;fontFamily=Helvetica;fontSize=11;fontColor=default;" parent="1" source="3LhN4c879SK9sG2BPAm--65" target="3LhN4c879SK9sG2BPAm--92" edge="1">
          <mxGeometry width="160" relative="1" as="geometry">
            <mxPoint x="447.14" y="1580" as="sourcePoint" />
            <mxPoint x="520.14" y="1580" as="targetPoint" />
          </mxGeometry>
        </mxCell>
        <mxCell id="3LhN4c879SK9sG2BPAm--94" value="View" style="ellipse;whiteSpace=wrap;html=1;" parent="1" vertex="1">
          <mxGeometry x="460.14" y="1690" width="80" height="50" as="geometry" />
        </mxCell>
        <mxCell id="3LhN4c879SK9sG2BPAm--95" value="&amp;lt;&amp;lt;extend&amp;gt;&amp;gt;" style="html=1;verticalAlign=bottom;labelBackgroundColor=none;endArrow=open;endFill=0;dashed=1;rounded=0;strokeColor=default;align=center;fontFamily=Helvetica;fontSize=11;fontColor=default;" parent="1" source="3LhN4c879SK9sG2BPAm--73" target="3LhN4c879SK9sG2BPAm--94" edge="1">
          <mxGeometry width="160" relative="1" as="geometry">
            <mxPoint x="594.14" y="1802" as="sourcePoint" />
            <mxPoint x="633.14" y="1748" as="targetPoint" />
          </mxGeometry>
        </mxCell>
        <mxCell id="3LhN4c879SK9sG2BPAm--96" value="Manage Profile" style="ellipse;whiteSpace=wrap;html=1;" parent="1" vertex="1">
          <mxGeometry x="490.14" y="1990" width="140" height="70" as="geometry" />
        </mxCell>
        <mxCell id="3LhN4c879SK9sG2BPAm--97" value="Edit" style="ellipse;whiteSpace=wrap;html=1;" parent="1" vertex="1">
          <mxGeometry x="600.14" y="1890" width="80" height="50" as="geometry" />
        </mxCell>
        <mxCell id="3LhN4c879SK9sG2BPAm--98" value="&amp;lt;&amp;lt;extend&amp;gt;&amp;gt;" style="html=1;verticalAlign=bottom;labelBackgroundColor=none;endArrow=open;endFill=0;dashed=1;rounded=0;strokeColor=default;align=center;fontFamily=Helvetica;fontSize=11;fontColor=default;" parent="1" source="3LhN4c879SK9sG2BPAm--96" target="3LhN4c879SK9sG2BPAm--97" edge="1">
          <mxGeometry width="160" relative="1" as="geometry">
            <mxPoint x="470.14" y="1990" as="sourcePoint" />
            <mxPoint x="630.14" y="1990" as="targetPoint" />
          </mxGeometry>
        </mxCell>
        <mxCell id="3LhN4c879SK9sG2BPAm--99" value="View" style="ellipse;whiteSpace=wrap;html=1;" parent="1" vertex="1">
          <mxGeometry x="460.14" y="1890" width="80" height="50" as="geometry" />
        </mxCell>
        <mxCell id="3LhN4c879SK9sG2BPAm--100" value="&amp;lt;&amp;lt;extend&amp;gt;&amp;gt;" style="html=1;verticalAlign=bottom;labelBackgroundColor=none;endArrow=open;endFill=0;dashed=1;rounded=0;strokeColor=default;align=center;fontFamily=Helvetica;fontSize=11;fontColor=default;" parent="1" source="3LhN4c879SK9sG2BPAm--96" target="3LhN4c879SK9sG2BPAm--99" edge="1">
          <mxGeometry width="160" relative="1" as="geometry">
            <mxPoint x="594.14" y="2002" as="sourcePoint" />
            <mxPoint x="633.14" y="1948" as="targetPoint" />
          </mxGeometry>
        </mxCell>
        <mxCell id="fSJDlGwZ3fynIPUPDxGs-1" value="" style="endArrow=none;html=1;rounded=0;" parent="1" source="3LhN4c879SK9sG2BPAm--2" target="3LhN4c879SK9sG2BPAm--7" edge="1">
          <mxGeometry width="50" height="50" relative="1" as="geometry">
            <mxPoint x="420.14" y="370" as="sourcePoint" />
            <mxPoint x="470.14" y="320" as="targetPoint" />
          </mxGeometry>
        </mxCell>
        <mxCell id="fSJDlGwZ3fynIPUPDxGs-11" value="Add" style="ellipse;whiteSpace=wrap;html=1;" parent="1" vertex="1">
          <mxGeometry x="470.14" y="150" width="80" height="50" as="geometry" />
        </mxCell>
        <mxCell id="fSJDlGwZ3fynIPUPDxGs-12" value="Edit" style="ellipse;whiteSpace=wrap;html=1;" parent="1" vertex="1">
          <mxGeometry x="580.14" y="170" width="80" height="50" as="geometry" />
        </mxCell>
        <mxCell id="fSJDlGwZ3fynIPUPDxGs-13" value="Delete" style="ellipse;whiteSpace=wrap;html=1;" parent="1" vertex="1">
          <mxGeometry x="680.14" y="200" width="80" height="50" as="geometry" />
        </mxCell>
        <mxCell id="fSJDlGwZ3fynIPUPDxGs-14" value="&amp;lt;&amp;lt;extend&amp;gt;&amp;gt;" style="html=1;verticalAlign=bottom;labelBackgroundColor=none;endArrow=open;endFill=0;dashed=1;rounded=0;strokeColor=default;align=center;fontFamily=Helvetica;fontSize=11;fontColor=default;" parent="1" source="3LhN4c879SK9sG2BPAm--22" target="fSJDlGwZ3fynIPUPDxGs-11" edge="1">
          <mxGeometry width="160" relative="1" as="geometry">
            <mxPoint x="562.14" y="281" as="sourcePoint" />
            <mxPoint x="650.14" y="280" as="targetPoint" />
          </mxGeometry>
        </mxCell>
        <mxCell id="fSJDlGwZ3fynIPUPDxGs-15" value="&amp;lt;&amp;lt;extend&amp;gt;&amp;gt;" style="html=1;verticalAlign=bottom;labelBackgroundColor=none;endArrow=open;endFill=0;dashed=1;rounded=0;strokeColor=default;align=center;fontFamily=Helvetica;fontSize=11;fontColor=default;" parent="1" source="3LhN4c879SK9sG2BPAm--22" target="fSJDlGwZ3fynIPUPDxGs-12" edge="1">
          <mxGeometry width="160" relative="1" as="geometry">
            <mxPoint x="590.14" y="280" as="sourcePoint" />
            <mxPoint x="513.14" y="256" as="targetPoint" />
          </mxGeometry>
        </mxCell>
        <mxCell id="fSJDlGwZ3fynIPUPDxGs-16" value="&amp;lt;&amp;lt;extend&amp;gt;&amp;gt;" style="html=1;verticalAlign=bottom;labelBackgroundColor=none;endArrow=open;endFill=0;dashed=1;rounded=0;strokeColor=default;align=center;fontFamily=Helvetica;fontSize=11;fontColor=default;" parent="1" source="3LhN4c879SK9sG2BPAm--22" target="fSJDlGwZ3fynIPUPDxGs-13" edge="1">
          <mxGeometry width="160" relative="1" as="geometry">
            <mxPoint x="628.14" y="289" as="sourcePoint" />
            <mxPoint x="523.14" y="266" as="targetPoint" />
          </mxGeometry>
        </mxCell>
        <mxCell id="fSJDlGwZ3fynIPUPDxGs-17" value="View" style="ellipse;whiteSpace=wrap;html=1;" parent="1" vertex="1">
          <mxGeometry x="380.14" y="200" width="80" height="50" as="geometry" />
        </mxCell>
        <mxCell id="fSJDlGwZ3fynIPUPDxGs-18" value="&amp;lt;&amp;lt;extend&amp;gt;&amp;gt;" style="html=1;verticalAlign=bottom;labelBackgroundColor=none;endArrow=open;endFill=0;dashed=1;rounded=0;strokeColor=default;align=center;fontFamily=Helvetica;fontSize=11;fontColor=default;" parent="1" source="3LhN4c879SK9sG2BPAm--22" target="fSJDlGwZ3fynIPUPDxGs-17" edge="1">
          <mxGeometry x="-0.4823" y="-2" width="160" relative="1" as="geometry">
            <mxPoint x="532.14" y="289" as="sourcePoint" />
            <mxPoint x="590.14" y="330" as="targetPoint" />
            <mxPoint as="offset" />
          </mxGeometry>
        </mxCell>
        <mxCell id="fSJDlGwZ3fynIPUPDxGs-19" style="edgeStyle=none;shape=connector;rounded=0;orthogonalLoop=1;jettySize=auto;html=1;strokeColor=default;align=center;verticalAlign=middle;fontFamily=Helvetica;fontSize=11;fontColor=default;labelBackgroundColor=default;endArrow=none;endFill=0;" parent="1" source="3LhN4c879SK9sG2BPAm--8" target="3LhN4c879SK9sG2BPAm--51" edge="1">
          <mxGeometry relative="1" as="geometry">
            <Array as="points">
              <mxPoint x="310.14" y="1120" />
            </Array>
            <mxPoint x="293.14" y="680" as="sourcePoint" />
            <mxPoint x="506.14" y="921" as="targetPoint" />
          </mxGeometry>
        </mxCell>
        <mxCell id="fSJDlGwZ3fynIPUPDxGs-20" style="rounded=0;orthogonalLoop=1;jettySize=auto;html=1;endArrow=none;endFill=0;" parent="1" source="3LhN4c879SK9sG2BPAm--1" target="3LhN4c879SK9sG2BPAm--58" edge="1">
          <mxGeometry relative="1" as="geometry">
            <Array as="points">
              <mxPoint x="400.14" y="1320" />
            </Array>
          </mxGeometry>
        </mxCell>
      </root>
    </mxGraphModel>
  </diagram>
  <diagram id="jHjZhWgwOtiHI7k663qR" name="class-diagram">
    <mxGraphModel dx="1705" dy="1839" grid="1" gridSize="10" guides="1" tooltips="1" connect="1" arrows="1" fold="1" page="1" pageScale="1" pageWidth="850" pageHeight="1100" math="0" shadow="0">
      <root>
        <mxCell id="0" />
        <mxCell id="1" parent="0" />
        <mxCell id="_KKGXcrLF3VbKyN5nEoX-6" value="User" style="swimlane;fontStyle=1;align=center;verticalAlign=top;childLayout=stackLayout;horizontal=1;startSize=26;horizontalStack=0;resizeParent=1;resizeParentMax=0;resizeLast=0;collapsible=1;marginBottom=0;whiteSpace=wrap;html=1;" parent="1" vertex="1">
          <mxGeometry x="-10" y="30" width="290" height="320" as="geometry" />
        </mxCell>
        <mxCell id="_KKGXcrLF3VbKyN5nEoX-7" value="+ id: int" style="text;strokeColor=none;fillColor=none;align=left;verticalAlign=top;spacingLeft=4;spacingRight=4;overflow=hidden;rotatable=0;points=[[0,0.5],[1,0.5]];portConstraint=eastwest;whiteSpace=wrap;html=1;" parent="_KKGXcrLF3VbKyN5nEoX-6" vertex="1">
          <mxGeometry y="26" width="290" height="26" as="geometry" />
        </mxCell>
        <mxCell id="4wDXa8H8jrL8yddJZhal-1" value="+ user_role_id: int" style="text;strokeColor=none;fillColor=none;align=left;verticalAlign=top;spacingLeft=4;spacingRight=4;overflow=hidden;rotatable=0;points=[[0,0.5],[1,0.5]];portConstraint=eastwest;whiteSpace=wrap;html=1;" parent="_KKGXcrLF3VbKyN5nEoX-6" vertex="1">
          <mxGeometry y="52" width="290" height="26" as="geometry" />
        </mxCell>
        <mxCell id="_KKGXcrLF3VbKyN5nEoX-10" value="+ username: string" style="text;strokeColor=none;fillColor=none;align=left;verticalAlign=top;spacingLeft=4;spacingRight=4;overflow=hidden;rotatable=0;points=[[0,0.5],[1,0.5]];portConstraint=eastwest;whiteSpace=wrap;html=1;" parent="_KKGXcrLF3VbKyN5nEoX-6" vertex="1">
          <mxGeometry y="78" width="290" height="26" as="geometry" />
        </mxCell>
        <mxCell id="_KKGXcrLF3VbKyN5nEoX-14" value="+ email: string" style="text;strokeColor=none;fillColor=none;align=left;verticalAlign=top;spacingLeft=4;spacingRight=4;overflow=hidden;rotatable=0;points=[[0,0.5],[1,0.5]];portConstraint=eastwest;whiteSpace=wrap;html=1;" parent="_KKGXcrLF3VbKyN5nEoX-6" vertex="1">
          <mxGeometry y="104" width="290" height="26" as="geometry" />
        </mxCell>
        <mxCell id="_KKGXcrLF3VbKyN5nEoX-15" value="+ password: string" style="text;strokeColor=none;fillColor=none;align=left;verticalAlign=top;spacingLeft=4;spacingRight=4;overflow=hidden;rotatable=0;points=[[0,0.5],[1,0.5]];portConstraint=eastwest;whiteSpace=wrap;html=1;" parent="_KKGXcrLF3VbKyN5nEoX-6" vertex="1">
          <mxGeometry y="130" width="290" height="26" as="geometry" />
        </mxCell>
        <mxCell id="lSpQuXqBC_qEc0hjLrWR-1" value="+ status: enum(&#39;on_process&#39;, &#39;active&#39;)" style="text;strokeColor=none;fillColor=none;align=left;verticalAlign=top;spacingLeft=4;spacingRight=4;overflow=hidden;rotatable=0;points=[[0,0.5],[1,0.5]];portConstraint=eastwest;whiteSpace=wrap;html=1;" parent="_KKGXcrLF3VbKyN5nEoX-6" vertex="1">
          <mxGeometry y="156" width="290" height="26" as="geometry" />
        </mxCell>
        <mxCell id="_KKGXcrLF3VbKyN5nEoX-8" value="" style="line;strokeWidth=1;fillColor=none;align=left;verticalAlign=middle;spacingTop=-1;spacingLeft=3;spacingRight=3;rotatable=0;labelPosition=right;points=[];portConstraint=eastwest;strokeColor=inherit;" parent="_KKGXcrLF3VbKyN5nEoX-6" vertex="1">
          <mxGeometry y="182" width="290" height="8" as="geometry" />
        </mxCell>
        <mxCell id="JFUeuGTlJTX4tr9S2qWD-11" value="+ findAll(): User[]" style="text;strokeColor=none;fillColor=none;align=left;verticalAlign=top;spacingLeft=4;spacingRight=4;overflow=hidden;rotatable=0;points=[[0,0.5],[1,0.5]];portConstraint=eastwest;whiteSpace=wrap;html=1;" parent="_KKGXcrLF3VbKyN5nEoX-6" vertex="1">
          <mxGeometry y="190" width="290" height="26" as="geometry" />
        </mxCell>
        <mxCell id="_KKGXcrLF3VbKyN5nEoX-9" value="+ find(id: int | string): User" style="text;strokeColor=none;fillColor=none;align=left;verticalAlign=top;spacingLeft=4;spacingRight=4;overflow=hidden;rotatable=0;points=[[0,0.5],[1,0.5]];portConstraint=eastwest;whiteSpace=wrap;html=1;" parent="_KKGXcrLF3VbKyN5nEoX-6" vertex="1">
          <mxGeometry y="216" width="290" height="26" as="geometry" />
        </mxCell>
        <mxCell id="_KKGXcrLF3VbKyN5nEoX-16" value="+ save(data: UserDTO): boolean" style="text;strokeColor=none;fillColor=none;align=left;verticalAlign=top;spacingLeft=4;spacingRight=4;overflow=hidden;rotatable=0;points=[[0,0.5],[1,0.5]];portConstraint=eastwest;whiteSpace=wrap;html=1;" parent="_KKGXcrLF3VbKyN5nEoX-6" vertex="1">
          <mxGeometry y="242" width="290" height="26" as="geometry" />
        </mxCell>
        <mxCell id="_KKGXcrLF3VbKyN5nEoX-17" value="+ update(id: int | string, data: UserDTO): boolean" style="text;strokeColor=none;fillColor=none;align=left;verticalAlign=top;spacingLeft=4;spacingRight=4;overflow=hidden;rotatable=0;points=[[0,0.5],[1,0.5]];portConstraint=eastwest;whiteSpace=wrap;html=1;" parent="_KKGXcrLF3VbKyN5nEoX-6" vertex="1">
          <mxGeometry y="268" width="290" height="26" as="geometry" />
        </mxCell>
        <mxCell id="4wDXa8H8jrL8yddJZhal-28" value="+ delete(id: int | string): boolean" style="text;strokeColor=none;fillColor=none;align=left;verticalAlign=top;spacingLeft=4;spacingRight=4;overflow=hidden;rotatable=0;points=[[0,0.5],[1,0.5]];portConstraint=eastwest;whiteSpace=wrap;html=1;" parent="_KKGXcrLF3VbKyN5nEoX-6" vertex="1">
          <mxGeometry y="294" width="290" height="26" as="geometry" />
        </mxCell>
        <mxCell id="_KKGXcrLF3VbKyN5nEoX-18" value="UserDTO" style="swimlane;fontStyle=1;align=center;verticalAlign=top;childLayout=stackLayout;horizontal=1;startSize=26;horizontalStack=0;resizeParent=1;resizeParentMax=0;resizeLast=0;collapsible=1;marginBottom=0;whiteSpace=wrap;html=1;" parent="1" vertex="1">
          <mxGeometry x="60" y="-150" width="150" height="130" as="geometry" />
        </mxCell>
        <mxCell id="4wDXa8H8jrL8yddJZhal-13" value="+ role_id?: int" style="text;strokeColor=none;fillColor=none;align=left;verticalAlign=top;spacingLeft=4;spacingRight=4;overflow=hidden;rotatable=0;points=[[0,0.5],[1,0.5]];portConstraint=eastwest;whiteSpace=wrap;html=1;" parent="_KKGXcrLF3VbKyN5nEoX-18" vertex="1">
          <mxGeometry y="26" width="150" height="26" as="geometry" />
        </mxCell>
        <mxCell id="_KKGXcrLF3VbKyN5nEoX-20" value="+ name?: string" style="text;strokeColor=none;fillColor=none;align=left;verticalAlign=top;spacingLeft=4;spacingRight=4;overflow=hidden;rotatable=0;points=[[0,0.5],[1,0.5]];portConstraint=eastwest;whiteSpace=wrap;html=1;" parent="_KKGXcrLF3VbKyN5nEoX-18" vertex="1">
          <mxGeometry y="52" width="150" height="26" as="geometry" />
        </mxCell>
        <mxCell id="_KKGXcrLF3VbKyN5nEoX-21" value="+ email?: string" style="text;strokeColor=none;fillColor=none;align=left;verticalAlign=top;spacingLeft=4;spacingRight=4;overflow=hidden;rotatable=0;points=[[0,0.5],[1,0.5]];portConstraint=eastwest;whiteSpace=wrap;html=1;" parent="_KKGXcrLF3VbKyN5nEoX-18" vertex="1">
          <mxGeometry y="78" width="150" height="26" as="geometry" />
        </mxCell>
        <mxCell id="_KKGXcrLF3VbKyN5nEoX-22" value="+ password?: string" style="text;strokeColor=none;fillColor=none;align=left;verticalAlign=top;spacingLeft=4;spacingRight=4;overflow=hidden;rotatable=0;points=[[0,0.5],[1,0.5]];portConstraint=eastwest;whiteSpace=wrap;html=1;" parent="_KKGXcrLF3VbKyN5nEoX-18" vertex="1">
          <mxGeometry y="104" width="150" height="26" as="geometry" />
        </mxCell>
        <mxCell id="4wDXa8H8jrL8yddJZhal-14" value="&lt;div&gt;Employee&lt;/div&gt;" style="swimlane;fontStyle=1;align=center;verticalAlign=top;childLayout=stackLayout;horizontal=1;startSize=26;horizontalStack=0;resizeParent=1;resizeParentMax=0;resizeLast=0;collapsible=1;marginBottom=0;whiteSpace=wrap;html=1;" parent="1" vertex="1">
          <mxGeometry x="380" y="30" width="330" height="346" as="geometry" />
        </mxCell>
        <mxCell id="4wDXa8H8jrL8yddJZhal-15" value="+ id: int" style="text;strokeColor=none;fillColor=none;align=left;verticalAlign=top;spacingLeft=4;spacingRight=4;overflow=hidden;rotatable=0;points=[[0,0.5],[1,0.5]];portConstraint=eastwest;whiteSpace=wrap;html=1;" parent="4wDXa8H8jrL8yddJZhal-14" vertex="1">
          <mxGeometry y="26" width="330" height="26" as="geometry" />
        </mxCell>
        <mxCell id="4wDXa8H8jrL8yddJZhal-16" value="+ user_id: int" style="text;strokeColor=none;fillColor=none;align=left;verticalAlign=top;spacingLeft=4;spacingRight=4;overflow=hidden;rotatable=0;points=[[0,0.5],[1,0.5]];portConstraint=eastwest;whiteSpace=wrap;html=1;" parent="4wDXa8H8jrL8yddJZhal-14" vertex="1">
          <mxGeometry y="52" width="330" height="26" as="geometry" />
        </mxCell>
        <mxCell id="4wDXa8H8jrL8yddJZhal-71" value="+ department_id: int" style="text;strokeColor=none;fillColor=none;align=left;verticalAlign=top;spacingLeft=4;spacingRight=4;overflow=hidden;rotatable=0;points=[[0,0.5],[1,0.5]];portConstraint=eastwest;whiteSpace=wrap;html=1;" parent="4wDXa8H8jrL8yddJZhal-14" vertex="1">
          <mxGeometry y="78" width="330" height="26" as="geometry" />
        </mxCell>
        <mxCell id="4wDXa8H8jrL8yddJZhal-49" value="+ employee_position_id: int" style="text;strokeColor=none;fillColor=none;align=left;verticalAlign=top;spacingLeft=4;spacingRight=4;overflow=hidden;rotatable=0;points=[[0,0.5],[1,0.5]];portConstraint=eastwest;whiteSpace=wrap;html=1;" parent="4wDXa8H8jrL8yddJZhal-14" vertex="1">
          <mxGeometry y="104" width="330" height="26" as="geometry" />
        </mxCell>
        <mxCell id="4wDXa8H8jrL8yddJZhal-17" value="+ card_id: string" style="text;strokeColor=none;fillColor=none;align=left;verticalAlign=top;spacingLeft=4;spacingRight=4;overflow=hidden;rotatable=0;points=[[0,0.5],[1,0.5]];portConstraint=eastwest;whiteSpace=wrap;html=1;" parent="4wDXa8H8jrL8yddJZhal-14" vertex="1">
          <mxGeometry y="130" width="330" height="26" as="geometry" />
        </mxCell>
        <mxCell id="4wDXa8H8jrL8yddJZhal-31" value="+ name: string" style="text;strokeColor=none;fillColor=none;align=left;verticalAlign=top;spacingLeft=4;spacingRight=4;overflow=hidden;rotatable=0;points=[[0,0.5],[1,0.5]];portConstraint=eastwest;whiteSpace=wrap;html=1;" parent="4wDXa8H8jrL8yddJZhal-14" vertex="1">
          <mxGeometry y="156" width="330" height="26" as="geometry" />
        </mxCell>
        <mxCell id="0A_gl6fZEAyYafF4eutT-3" value="+ status: enum(&#39;on_process&#39;, &#39;active&#39;, &#39;on_leave&#39;, &#39;resigned&#39;)" style="text;strokeColor=none;fillColor=none;align=left;verticalAlign=top;spacingLeft=4;spacingRight=4;overflow=hidden;rotatable=0;points=[[0,0.5],[1,0.5]];portConstraint=eastwest;whiteSpace=wrap;html=1;" parent="4wDXa8H8jrL8yddJZhal-14" vertex="1">
          <mxGeometry y="182" width="330" height="26" as="geometry" />
        </mxCell>
        <mxCell id="4wDXa8H8jrL8yddJZhal-20" value="" style="line;strokeWidth=1;fillColor=none;align=left;verticalAlign=middle;spacingTop=-1;spacingLeft=3;spacingRight=3;rotatable=0;labelPosition=right;points=[];portConstraint=eastwest;strokeColor=inherit;" parent="4wDXa8H8jrL8yddJZhal-14" vertex="1">
          <mxGeometry y="208" width="330" height="8" as="geometry" />
        </mxCell>
        <mxCell id="JFUeuGTlJTX4tr9S2qWD-12" value="+ findAll(): Employee[]" style="text;strokeColor=none;fillColor=none;align=left;verticalAlign=top;spacingLeft=4;spacingRight=4;overflow=hidden;rotatable=0;points=[[0,0.5],[1,0.5]];portConstraint=eastwest;whiteSpace=wrap;html=1;" parent="4wDXa8H8jrL8yddJZhal-14" vertex="1">
          <mxGeometry y="216" width="330" height="26" as="geometry" />
        </mxCell>
        <mxCell id="4wDXa8H8jrL8yddJZhal-21" value="+ find(id: int | string): Employee" style="text;strokeColor=none;fillColor=none;align=left;verticalAlign=top;spacingLeft=4;spacingRight=4;overflow=hidden;rotatable=0;points=[[0,0.5],[1,0.5]];portConstraint=eastwest;whiteSpace=wrap;html=1;" parent="4wDXa8H8jrL8yddJZhal-14" vertex="1">
          <mxGeometry y="242" width="330" height="26" as="geometry" />
        </mxCell>
        <mxCell id="4wDXa8H8jrL8yddJZhal-22" value="+ save(data: EmployeeDTO): boolean" style="text;strokeColor=none;fillColor=none;align=left;verticalAlign=top;spacingLeft=4;spacingRight=4;overflow=hidden;rotatable=0;points=[[0,0.5],[1,0.5]];portConstraint=eastwest;whiteSpace=wrap;html=1;" parent="4wDXa8H8jrL8yddJZhal-14" vertex="1">
          <mxGeometry y="268" width="330" height="26" as="geometry" />
        </mxCell>
        <mxCell id="4wDXa8H8jrL8yddJZhal-23" value="+ update(id: int | string, data: EmployeeDTO): boolean" style="text;strokeColor=none;fillColor=none;align=left;verticalAlign=top;spacingLeft=4;spacingRight=4;overflow=hidden;rotatable=0;points=[[0,0.5],[1,0.5]];portConstraint=eastwest;whiteSpace=wrap;html=1;" parent="4wDXa8H8jrL8yddJZhal-14" vertex="1">
          <mxGeometry y="294" width="330" height="26" as="geometry" />
        </mxCell>
        <mxCell id="4wDXa8H8jrL8yddJZhal-30" value="+ delete(id: int | string): boolean" style="text;strokeColor=none;fillColor=none;align=left;verticalAlign=top;spacingLeft=4;spacingRight=4;overflow=hidden;rotatable=0;points=[[0,0.5],[1,0.5]];portConstraint=eastwest;whiteSpace=wrap;html=1;" parent="4wDXa8H8jrL8yddJZhal-14" vertex="1">
          <mxGeometry y="320" width="330" height="26" as="geometry" />
        </mxCell>
        <mxCell id="4wDXa8H8jrL8yddJZhal-44" value="EmployeeDTO" style="swimlane;fontStyle=1;align=center;verticalAlign=top;childLayout=stackLayout;horizontal=1;startSize=26;horizontalStack=0;resizeParent=1;resizeParentMax=0;resizeLast=0;collapsible=1;marginBottom=0;whiteSpace=wrap;html=1;" parent="1" vertex="1">
          <mxGeometry x="425" y="-178" width="205" height="156" as="geometry" />
        </mxCell>
        <mxCell id="4wDXa8H8jrL8yddJZhal-53" value="+ user_id?: int" style="text;strokeColor=none;fillColor=none;align=left;verticalAlign=top;spacingLeft=4;spacingRight=4;overflow=hidden;rotatable=0;points=[[0,0.5],[1,0.5]];portConstraint=eastwest;whiteSpace=wrap;html=1;" parent="4wDXa8H8jrL8yddJZhal-44" vertex="1">
          <mxGeometry y="26" width="205" height="26" as="geometry" />
        </mxCell>
        <mxCell id="4wDXa8H8jrL8yddJZhal-52" value="+ employee_position_id?: int" style="text;strokeColor=none;fillColor=none;align=left;verticalAlign=top;spacingLeft=4;spacingRight=4;overflow=hidden;rotatable=0;points=[[0,0.5],[1,0.5]];portConstraint=eastwest;whiteSpace=wrap;html=1;" parent="4wDXa8H8jrL8yddJZhal-44" vertex="1">
          <mxGeometry y="52" width="205" height="26" as="geometry" />
        </mxCell>
        <mxCell id="4wDXa8H8jrL8yddJZhal-55" value="+ employee_card_id?: string" style="text;strokeColor=none;fillColor=none;align=left;verticalAlign=top;spacingLeft=4;spacingRight=4;overflow=hidden;rotatable=0;points=[[0,0.5],[1,0.5]];portConstraint=eastwest;whiteSpace=wrap;html=1;" parent="4wDXa8H8jrL8yddJZhal-44" vertex="1">
          <mxGeometry y="78" width="205" height="26" as="geometry" />
        </mxCell>
        <mxCell id="4wDXa8H8jrL8yddJZhal-54" value="+ name?: string" style="text;strokeColor=none;fillColor=none;align=left;verticalAlign=top;spacingLeft=4;spacingRight=4;overflow=hidden;rotatable=0;points=[[0,0.5],[1,0.5]];portConstraint=eastwest;whiteSpace=wrap;html=1;" parent="4wDXa8H8jrL8yddJZhal-44" vertex="1">
          <mxGeometry y="104" width="205" height="26" as="geometry" />
        </mxCell>
        <mxCell id="0A_gl6fZEAyYafF4eutT-46" value="+ status?: enum(&#39;active&#39;, &#39;on_leave&#39;)" style="text;strokeColor=none;fillColor=none;align=left;verticalAlign=top;spacingLeft=4;spacingRight=4;overflow=hidden;rotatable=0;points=[[0,0.5],[1,0.5]];portConstraint=eastwest;whiteSpace=wrap;html=1;" parent="4wDXa8H8jrL8yddJZhal-44" vertex="1">
          <mxGeometry y="130" width="205" height="26" as="geometry" />
        </mxCell>
        <mxCell id="4wDXa8H8jrL8yddJZhal-67" value="EmployeePosition" style="swimlane;fontStyle=1;align=center;verticalAlign=top;childLayout=stackLayout;horizontal=1;startSize=26;horizontalStack=0;resizeParent=1;resizeParentMax=0;resizeLast=0;collapsible=1;marginBottom=0;whiteSpace=wrap;html=1;" parent="1" vertex="1">
          <mxGeometry x="760" y="60" width="360" height="242" as="geometry" />
        </mxCell>
        <mxCell id="4wDXa8H8jrL8yddJZhal-68" value="+ id: int" style="text;strokeColor=none;fillColor=none;align=left;verticalAlign=top;spacingLeft=4;spacingRight=4;overflow=hidden;rotatable=0;points=[[0,0.5],[1,0.5]];portConstraint=eastwest;whiteSpace=wrap;html=1;" parent="4wDXa8H8jrL8yddJZhal-67" vertex="1">
          <mxGeometry y="26" width="360" height="26" as="geometry" />
        </mxCell>
        <mxCell id="4wDXa8H8jrL8yddJZhal-72" value="+ name: string" style="text;strokeColor=none;fillColor=none;align=left;verticalAlign=top;spacingLeft=4;spacingRight=4;overflow=hidden;rotatable=0;points=[[0,0.5],[1,0.5]];portConstraint=eastwest;whiteSpace=wrap;html=1;" parent="4wDXa8H8jrL8yddJZhal-67" vertex="1">
          <mxGeometry y="52" width="360" height="26" as="geometry" />
        </mxCell>
        <mxCell id="hxAE0txFr5q8xrJPZYtH-3" value="+ slug: string" style="text;strokeColor=none;fillColor=none;align=left;verticalAlign=top;spacingLeft=4;spacingRight=4;overflow=hidden;rotatable=0;points=[[0,0.5],[1,0.5]];portConstraint=eastwest;whiteSpace=wrap;html=1;" parent="4wDXa8H8jrL8yddJZhal-67" vertex="1">
          <mxGeometry y="78" width="360" height="26" as="geometry" />
        </mxCell>
        <mxCell id="4wDXa8H8jrL8yddJZhal-69" value="" style="line;strokeWidth=1;fillColor=none;align=left;verticalAlign=middle;spacingTop=-1;spacingLeft=3;spacingRight=3;rotatable=0;labelPosition=right;points=[];portConstraint=eastwest;strokeColor=inherit;" parent="4wDXa8H8jrL8yddJZhal-67" vertex="1">
          <mxGeometry y="104" width="360" height="8" as="geometry" />
        </mxCell>
        <mxCell id="JFUeuGTlJTX4tr9S2qWD-13" value="+ findAll(): EmployeePosition[]" style="text;strokeColor=none;fillColor=none;align=left;verticalAlign=top;spacingLeft=4;spacingRight=4;overflow=hidden;rotatable=0;points=[[0,0.5],[1,0.5]];portConstraint=eastwest;whiteSpace=wrap;html=1;" parent="4wDXa8H8jrL8yddJZhal-67" vertex="1">
          <mxGeometry y="112" width="360" height="26" as="geometry" />
        </mxCell>
        <mxCell id="4wDXa8H8jrL8yddJZhal-73" value="+ find(id: int | string): EmployeePosition" style="text;strokeColor=none;fillColor=none;align=left;verticalAlign=top;spacingLeft=4;spacingRight=4;overflow=hidden;rotatable=0;points=[[0,0.5],[1,0.5]];portConstraint=eastwest;whiteSpace=wrap;html=1;" parent="4wDXa8H8jrL8yddJZhal-67" vertex="1">
          <mxGeometry y="138" width="360" height="26" as="geometry" />
        </mxCell>
        <mxCell id="4wDXa8H8jrL8yddJZhal-74" value="+ save(data: EmployeePositionDTO): boolean" style="text;strokeColor=none;fillColor=none;align=left;verticalAlign=top;spacingLeft=4;spacingRight=4;overflow=hidden;rotatable=0;points=[[0,0.5],[1,0.5]];portConstraint=eastwest;whiteSpace=wrap;html=1;" parent="4wDXa8H8jrL8yddJZhal-67" vertex="1">
          <mxGeometry y="164" width="360" height="26" as="geometry" />
        </mxCell>
        <mxCell id="4wDXa8H8jrL8yddJZhal-76" value="+ delete(id: int | string): boolean" style="text;strokeColor=none;fillColor=none;align=left;verticalAlign=top;spacingLeft=4;spacingRight=4;overflow=hidden;rotatable=0;points=[[0,0.5],[1,0.5]];portConstraint=eastwest;whiteSpace=wrap;html=1;" parent="4wDXa8H8jrL8yddJZhal-67" vertex="1">
          <mxGeometry y="190" width="360" height="26" as="geometry" />
        </mxCell>
        <mxCell id="4wDXa8H8jrL8yddJZhal-75" value="+ update(id: int | string, data: EmployeePositionDTO): boolean" style="text;strokeColor=none;fillColor=none;align=left;verticalAlign=top;spacingLeft=4;spacingRight=4;overflow=hidden;rotatable=0;points=[[0,0.5],[1,0.5]];portConstraint=eastwest;whiteSpace=wrap;html=1;" parent="4wDXa8H8jrL8yddJZhal-67" vertex="1">
          <mxGeometry y="216" width="360" height="26" as="geometry" />
        </mxCell>
        <mxCell id="4wDXa8H8jrL8yddJZhal-81" value="EmployeePositionDTO" style="swimlane;fontStyle=0;childLayout=stackLayout;horizontal=1;startSize=26;fillColor=none;horizontalStack=0;resizeParent=1;resizeParentMax=0;resizeLast=0;collapsible=1;marginBottom=0;whiteSpace=wrap;html=1;" parent="1" vertex="1">
          <mxGeometry x="845" y="-60" width="190" height="52" as="geometry" />
        </mxCell>
        <mxCell id="4wDXa8H8jrL8yddJZhal-82" value="+ name?: string" style="text;strokeColor=none;fillColor=none;align=left;verticalAlign=top;spacingLeft=4;spacingRight=4;overflow=hidden;rotatable=0;points=[[0,0.5],[1,0.5]];portConstraint=eastwest;whiteSpace=wrap;html=1;" parent="4wDXa8H8jrL8yddJZhal-81" vertex="1">
          <mxGeometry y="26" width="190" height="26" as="geometry" />
        </mxCell>
        <mxCell id="JFUeuGTlJTX4tr9S2qWD-1" value="Role" style="swimlane;fontStyle=1;align=center;verticalAlign=top;childLayout=stackLayout;horizontal=1;startSize=26;horizontalStack=0;resizeParent=1;resizeParentMax=0;resizeLast=0;collapsible=1;marginBottom=0;whiteSpace=wrap;html=1;" parent="1" vertex="1">
          <mxGeometry x="-480" y="30" width="330" height="242" as="geometry" />
        </mxCell>
        <mxCell id="JFUeuGTlJTX4tr9S2qWD-2" value="+ id: int" style="text;strokeColor=none;fillColor=none;align=left;verticalAlign=top;spacingLeft=4;spacingRight=4;overflow=hidden;rotatable=0;points=[[0,0.5],[1,0.5]];portConstraint=eastwest;whiteSpace=wrap;html=1;" parent="JFUeuGTlJTX4tr9S2qWD-1" vertex="1">
          <mxGeometry y="26" width="330" height="26" as="geometry" />
        </mxCell>
        <mxCell id="JFUeuGTlJTX4tr9S2qWD-5" value="+ name: string" style="text;strokeColor=none;fillColor=none;align=left;verticalAlign=top;spacingLeft=4;spacingRight=4;overflow=hidden;rotatable=0;points=[[0,0.5],[1,0.5]];portConstraint=eastwest;whiteSpace=wrap;html=1;" parent="JFUeuGTlJTX4tr9S2qWD-1" vertex="1">
          <mxGeometry y="52" width="330" height="26" as="geometry" />
        </mxCell>
        <mxCell id="hxAE0txFr5q8xrJPZYtH-7" value="+ slug: string" style="text;strokeColor=none;fillColor=none;align=left;verticalAlign=top;spacingLeft=4;spacingRight=4;overflow=hidden;rotatable=0;points=[[0,0.5],[1,0.5]];portConstraint=eastwest;whiteSpace=wrap;html=1;" parent="JFUeuGTlJTX4tr9S2qWD-1" vertex="1">
          <mxGeometry y="78" width="330" height="26" as="geometry" />
        </mxCell>
        <mxCell id="JFUeuGTlJTX4tr9S2qWD-3" value="" style="line;strokeWidth=1;fillColor=none;align=left;verticalAlign=middle;spacingTop=-1;spacingLeft=3;spacingRight=3;rotatable=0;labelPosition=right;points=[];portConstraint=eastwest;strokeColor=inherit;" parent="JFUeuGTlJTX4tr9S2qWD-1" vertex="1">
          <mxGeometry y="104" width="330" height="8" as="geometry" />
        </mxCell>
        <mxCell id="JFUeuGTlJTX4tr9S2qWD-10" value="+ findAll(): Role[]" style="text;strokeColor=none;fillColor=none;align=left;verticalAlign=top;spacingLeft=4;spacingRight=4;overflow=hidden;rotatable=0;points=[[0,0.5],[1,0.5]];portConstraint=eastwest;whiteSpace=wrap;html=1;" parent="JFUeuGTlJTX4tr9S2qWD-1" vertex="1">
          <mxGeometry y="112" width="330" height="26" as="geometry" />
        </mxCell>
        <mxCell id="JFUeuGTlJTX4tr9S2qWD-6" value="+ find(id: int | string): Role" style="text;strokeColor=none;fillColor=none;align=left;verticalAlign=top;spacingLeft=4;spacingRight=4;overflow=hidden;rotatable=0;points=[[0,0.5],[1,0.5]];portConstraint=eastwest;whiteSpace=wrap;html=1;" parent="JFUeuGTlJTX4tr9S2qWD-1" vertex="1">
          <mxGeometry y="138" width="330" height="26" as="geometry" />
        </mxCell>
        <mxCell id="JFUeuGTlJTX4tr9S2qWD-7" value="+ save(data: RoleDTO): boolean" style="text;strokeColor=none;fillColor=none;align=left;verticalAlign=top;spacingLeft=4;spacingRight=4;overflow=hidden;rotatable=0;points=[[0,0.5],[1,0.5]];portConstraint=eastwest;whiteSpace=wrap;html=1;" parent="JFUeuGTlJTX4tr9S2qWD-1" vertex="1">
          <mxGeometry y="164" width="330" height="26" as="geometry" />
        </mxCell>
        <mxCell id="JFUeuGTlJTX4tr9S2qWD-9" value="+ delete(id: int | string): boolean" style="text;strokeColor=none;fillColor=none;align=left;verticalAlign=top;spacingLeft=4;spacingRight=4;overflow=hidden;rotatable=0;points=[[0,0.5],[1,0.5]];portConstraint=eastwest;whiteSpace=wrap;html=1;" parent="JFUeuGTlJTX4tr9S2qWD-1" vertex="1">
          <mxGeometry y="190" width="330" height="26" as="geometry" />
        </mxCell>
        <mxCell id="JFUeuGTlJTX4tr9S2qWD-8" value="+ update(id: int | string, data: RoleDTO): boolean" style="text;strokeColor=none;fillColor=none;align=left;verticalAlign=top;spacingLeft=4;spacingRight=4;overflow=hidden;rotatable=0;points=[[0,0.5],[1,0.5]];portConstraint=eastwest;whiteSpace=wrap;html=1;" parent="JFUeuGTlJTX4tr9S2qWD-1" vertex="1">
          <mxGeometry y="216" width="330" height="26" as="geometry" />
        </mxCell>
        <mxCell id="JFUeuGTlJTX4tr9S2qWD-14" value="RoleDTO" style="swimlane;fontStyle=0;childLayout=stackLayout;horizontal=1;startSize=26;fillColor=none;horizontalStack=0;resizeParent=1;resizeParentMax=0;resizeLast=0;collapsible=1;marginBottom=0;whiteSpace=wrap;html=1;" parent="1" vertex="1">
          <mxGeometry x="-400" y="-100" width="140" height="52" as="geometry" />
        </mxCell>
        <mxCell id="JFUeuGTlJTX4tr9S2qWD-15" value="+ name: string" style="text;strokeColor=none;fillColor=none;align=left;verticalAlign=top;spacingLeft=4;spacingRight=4;overflow=hidden;rotatable=0;points=[[0,0.5],[1,0.5]];portConstraint=eastwest;whiteSpace=wrap;html=1;" parent="JFUeuGTlJTX4tr9S2qWD-14" vertex="1">
          <mxGeometry y="26" width="140" height="26" as="geometry" />
        </mxCell>
        <mxCell id="MshQBY4aJP5PxyMLOKjv-1" value="Department" style="swimlane;fontStyle=1;align=center;verticalAlign=top;childLayout=stackLayout;horizontal=1;startSize=26;horizontalStack=0;resizeParent=1;resizeParentMax=0;resizeLast=0;collapsible=1;marginBottom=0;whiteSpace=wrap;html=1;" parent="1" vertex="1">
          <mxGeometry x="810" y="430" width="315" height="242" as="geometry" />
        </mxCell>
        <mxCell id="f29qvKTKdPW8XwoqMaMl-1" value="+ id: int" style="text;strokeColor=none;fillColor=none;align=left;verticalAlign=top;spacingLeft=4;spacingRight=4;overflow=hidden;rotatable=0;points=[[0,0.5],[1,0.5]];portConstraint=eastwest;whiteSpace=wrap;html=1;" parent="MshQBY4aJP5PxyMLOKjv-1" vertex="1">
          <mxGeometry y="26" width="315" height="26" as="geometry" />
        </mxCell>
        <mxCell id="MshQBY4aJP5PxyMLOKjv-2" value="+ name: string" style="text;strokeColor=none;fillColor=none;align=left;verticalAlign=top;spacingLeft=4;spacingRight=4;overflow=hidden;rotatable=0;points=[[0,0.5],[1,0.5]];portConstraint=eastwest;whiteSpace=wrap;html=1;" parent="MshQBY4aJP5PxyMLOKjv-1" vertex="1">
          <mxGeometry y="52" width="315" height="26" as="geometry" />
        </mxCell>
        <mxCell id="hxAE0txFr5q8xrJPZYtH-5" value="+ slug: string" style="text;strokeColor=none;fillColor=none;align=left;verticalAlign=top;spacingLeft=4;spacingRight=4;overflow=hidden;rotatable=0;points=[[0,0.5],[1,0.5]];portConstraint=eastwest;whiteSpace=wrap;html=1;" parent="MshQBY4aJP5PxyMLOKjv-1" vertex="1">
          <mxGeometry y="78" width="315" height="26" as="geometry" />
        </mxCell>
        <mxCell id="MshQBY4aJP5PxyMLOKjv-3" value="" style="line;strokeWidth=1;fillColor=none;align=left;verticalAlign=middle;spacingTop=-1;spacingLeft=3;spacingRight=3;rotatable=0;labelPosition=right;points=[];portConstraint=eastwest;strokeColor=inherit;" parent="MshQBY4aJP5PxyMLOKjv-1" vertex="1">
          <mxGeometry y="104" width="315" height="8" as="geometry" />
        </mxCell>
        <mxCell id="MshQBY4aJP5PxyMLOKjv-5" value="+ findAll(): Department[]" style="text;strokeColor=none;fillColor=none;align=left;verticalAlign=top;spacingLeft=4;spacingRight=4;overflow=hidden;rotatable=0;points=[[0,0.5],[1,0.5]];portConstraint=eastwest;whiteSpace=wrap;html=1;" parent="MshQBY4aJP5PxyMLOKjv-1" vertex="1">
          <mxGeometry y="112" width="315" height="26" as="geometry" />
        </mxCell>
        <mxCell id="MshQBY4aJP5PxyMLOKjv-6" value="+ find(id: int | string): Department" style="text;strokeColor=none;fillColor=none;align=left;verticalAlign=top;spacingLeft=4;spacingRight=4;overflow=hidden;rotatable=0;points=[[0,0.5],[1,0.5]];portConstraint=eastwest;whiteSpace=wrap;html=1;" parent="MshQBY4aJP5PxyMLOKjv-1" vertex="1">
          <mxGeometry y="138" width="315" height="26" as="geometry" />
        </mxCell>
        <mxCell id="MshQBY4aJP5PxyMLOKjv-7" value="+ save(data: DepartmentDTO): boolean" style="text;strokeColor=none;fillColor=none;align=left;verticalAlign=top;spacingLeft=4;spacingRight=4;overflow=hidden;rotatable=0;points=[[0,0.5],[1,0.5]];portConstraint=eastwest;whiteSpace=wrap;html=1;" parent="MshQBY4aJP5PxyMLOKjv-1" vertex="1">
          <mxGeometry y="164" width="315" height="26" as="geometry" />
        </mxCell>
        <mxCell id="MshQBY4aJP5PxyMLOKjv-8" value="+ update(id: int | string, data: DepartmentDTO): boolean" style="text;strokeColor=none;fillColor=none;align=left;verticalAlign=top;spacingLeft=4;spacingRight=4;overflow=hidden;rotatable=0;points=[[0,0.5],[1,0.5]];portConstraint=eastwest;whiteSpace=wrap;html=1;" parent="MshQBY4aJP5PxyMLOKjv-1" vertex="1">
          <mxGeometry y="190" width="315" height="26" as="geometry" />
        </mxCell>
        <mxCell id="MshQBY4aJP5PxyMLOKjv-9" value="+ delete(id: int | string): boolean" style="text;strokeColor=none;fillColor=none;align=left;verticalAlign=top;spacingLeft=4;spacingRight=4;overflow=hidden;rotatable=0;points=[[0,0.5],[1,0.5]];portConstraint=eastwest;whiteSpace=wrap;html=1;" parent="MshQBY4aJP5PxyMLOKjv-1" vertex="1">
          <mxGeometry y="216" width="315" height="26" as="geometry" />
        </mxCell>
        <mxCell id="MshQBY4aJP5PxyMLOKjv-10" value="DepartmentDTO" style="swimlane;fontStyle=0;childLayout=stackLayout;horizontal=1;startSize=26;fillColor=none;horizontalStack=0;resizeParent=1;resizeParentMax=0;resizeLast=0;collapsible=1;marginBottom=0;whiteSpace=wrap;html=1;" parent="1" vertex="1">
          <mxGeometry x="1180" y="489" width="140" height="52" as="geometry" />
        </mxCell>
        <mxCell id="MshQBY4aJP5PxyMLOKjv-11" value="+ name?: string" style="text;strokeColor=none;fillColor=none;align=left;verticalAlign=top;spacingLeft=4;spacingRight=4;overflow=hidden;rotatable=0;points=[[0,0.5],[1,0.5]];portConstraint=eastwest;whiteSpace=wrap;html=1;" parent="MshQBY4aJP5PxyMLOKjv-10" vertex="1">
          <mxGeometry y="26" width="140" height="26" as="geometry" />
        </mxCell>
        <mxCell id="Rozw7FEZMequt8gv9AbR-2" value="" style="edgeStyle=orthogonalEdgeStyle;fontSize=12;html=1;endArrow=ERmandOne;startArrow=ERmandOne;rounded=0;" parent="1" source="4wDXa8H8jrL8yddJZhal-14" target="_KKGXcrLF3VbKyN5nEoX-6" edge="1">
          <mxGeometry width="100" height="100" relative="1" as="geometry">
            <mxPoint x="160" y="360" as="sourcePoint" />
            <mxPoint x="260" y="260" as="targetPoint" />
          </mxGeometry>
        </mxCell>
        <mxCell id="Rozw7FEZMequt8gv9AbR-3" value="EmployeeSchedule" style="swimlane;fontStyle=1;align=center;verticalAlign=top;childLayout=stackLayout;horizontal=1;startSize=26;horizontalStack=0;resizeParent=1;resizeParentMax=0;resizeLast=0;collapsible=1;marginBottom=0;whiteSpace=wrap;html=1;" parent="1" vertex="1">
          <mxGeometry x="-60" y="410" width="360" height="398" as="geometry" />
        </mxCell>
        <mxCell id="Rozw7FEZMequt8gv9AbR-4" value="+ id: int" style="text;strokeColor=none;fillColor=none;align=left;verticalAlign=top;spacingLeft=4;spacingRight=4;overflow=hidden;rotatable=0;points=[[0,0.5],[1,0.5]];portConstraint=eastwest;whiteSpace=wrap;html=1;" parent="Rozw7FEZMequt8gv9AbR-3" vertex="1">
          <mxGeometry y="26" width="360" height="26" as="geometry" />
        </mxCell>
        <mxCell id="0A_gl6fZEAyYafF4eutT-1" value="+ employee_id: int" style="text;strokeColor=none;fillColor=none;align=left;verticalAlign=top;spacingLeft=4;spacingRight=4;overflow=hidden;rotatable=0;points=[[0,0.5],[1,0.5]];portConstraint=eastwest;whiteSpace=wrap;html=1;" parent="Rozw7FEZMequt8gv9AbR-3" vertex="1">
          <mxGeometry y="52" width="360" height="26" as="geometry" />
        </mxCell>
        <mxCell id="0A_gl6fZEAyYafF4eutT-4" value="+ date: date" style="text;strokeColor=none;fillColor=none;align=left;verticalAlign=top;spacingLeft=4;spacingRight=4;overflow=hidden;rotatable=0;points=[[0,0.5],[1,0.5]];portConstraint=eastwest;whiteSpace=wrap;html=1;" parent="Rozw7FEZMequt8gv9AbR-3" vertex="1">
          <mxGeometry y="78" width="360" height="26" as="geometry" />
        </mxCell>
        <mxCell id="0A_gl6fZEAyYafF4eutT-5" value="+ start_time: time" style="text;strokeColor=none;fillColor=none;align=left;verticalAlign=top;spacingLeft=4;spacingRight=4;overflow=hidden;rotatable=0;points=[[0,0.5],[1,0.5]];portConstraint=eastwest;whiteSpace=wrap;html=1;" parent="Rozw7FEZMequt8gv9AbR-3" vertex="1">
          <mxGeometry y="104" width="360" height="26" as="geometry" />
        </mxCell>
        <mxCell id="0A_gl6fZEAyYafF4eutT-6" value="+ end_time: time" style="text;strokeColor=none;fillColor=none;align=left;verticalAlign=top;spacingLeft=4;spacingRight=4;overflow=hidden;rotatable=0;points=[[0,0.5],[1,0.5]];portConstraint=eastwest;whiteSpace=wrap;html=1;" parent="Rozw7FEZMequt8gv9AbR-3" vertex="1">
          <mxGeometry y="130" width="360" height="26" as="geometry" />
        </mxCell>
        <mxCell id="0A_gl6fZEAyYafF4eutT-7" value="+ work_type: enum(&#39;shift&#39;, &#39;regular&#39;)" style="text;strokeColor=none;fillColor=none;align=left;verticalAlign=top;spacingLeft=4;spacingRight=4;overflow=hidden;rotatable=0;points=[[0,0.5],[1,0.5]];portConstraint=eastwest;whiteSpace=wrap;html=1;" parent="Rozw7FEZMequt8gv9AbR-3" vertex="1">
          <mxGeometry y="156" width="360" height="26" as="geometry" />
        </mxCell>
        <mxCell id="0A_gl6fZEAyYafF4eutT-8" value="+ work_time: enum(&#39;morning&#39;, &#39;afternoon&#39;, &#39;night&#39;,&amp;nbsp; &#39;regular&#39;)" style="text;strokeColor=none;fillColor=none;align=left;verticalAlign=top;spacingLeft=4;spacingRight=4;overflow=hidden;rotatable=0;points=[[0,0.5],[1,0.5]];portConstraint=eastwest;whiteSpace=wrap;html=1;" parent="Rozw7FEZMequt8gv9AbR-3" vertex="1">
          <mxGeometry y="182" width="360" height="26" as="geometry" />
        </mxCell>
        <mxCell id="hxAE0txFr5q8xrJPZYtH-2" value="+ slug: string" style="text;strokeColor=none;fillColor=none;align=left;verticalAlign=top;spacingLeft=4;spacingRight=4;overflow=hidden;rotatable=0;points=[[0,0.5],[1,0.5]];portConstraint=eastwest;whiteSpace=wrap;html=1;" parent="Rozw7FEZMequt8gv9AbR-3" vertex="1">
          <mxGeometry y="208" width="360" height="26" as="geometry" />
        </mxCell>
        <mxCell id="1cezhTzecbeSHKCNYagA-1" value="+ status: enum(&#39;on_progress&#39;, &#39;approved&#39;, &#39;rejected&#39;)" style="text;strokeColor=none;fillColor=none;align=left;verticalAlign=top;spacingLeft=4;spacingRight=4;overflow=hidden;rotatable=0;points=[[0,0.5],[1,0.5]];portConstraint=eastwest;whiteSpace=wrap;html=1;" parent="Rozw7FEZMequt8gv9AbR-3" vertex="1">
          <mxGeometry y="234" width="360" height="26" as="geometry" />
        </mxCell>
        <mxCell id="Rozw7FEZMequt8gv9AbR-5" value="" style="line;strokeWidth=1;fillColor=none;align=left;verticalAlign=middle;spacingTop=-1;spacingLeft=3;spacingRight=3;rotatable=0;labelPosition=right;points=[];portConstraint=eastwest;strokeColor=inherit;" parent="Rozw7FEZMequt8gv9AbR-3" vertex="1">
          <mxGeometry y="260" width="360" height="8" as="geometry" />
        </mxCell>
        <mxCell id="0A_gl6fZEAyYafF4eutT-9" value="+ findAll(): EmployeeSchedule[]" style="text;strokeColor=none;fillColor=none;align=left;verticalAlign=top;spacingLeft=4;spacingRight=4;overflow=hidden;rotatable=0;points=[[0,0.5],[1,0.5]];portConstraint=eastwest;whiteSpace=wrap;html=1;" parent="Rozw7FEZMequt8gv9AbR-3" vertex="1">
          <mxGeometry y="268" width="360" height="26" as="geometry" />
        </mxCell>
        <mxCell id="0A_gl6fZEAyYafF4eutT-10" value="+ find(id: int | string): EmployeeSchedule" style="text;strokeColor=none;fillColor=none;align=left;verticalAlign=top;spacingLeft=4;spacingRight=4;overflow=hidden;rotatable=0;points=[[0,0.5],[1,0.5]];portConstraint=eastwest;whiteSpace=wrap;html=1;" parent="Rozw7FEZMequt8gv9AbR-3" vertex="1">
          <mxGeometry y="294" width="360" height="26" as="geometry" />
        </mxCell>
        <mxCell id="0A_gl6fZEAyYafF4eutT-11" value="+ save(data: EmployeeScheduleDTO): boolean" style="text;strokeColor=none;fillColor=none;align=left;verticalAlign=top;spacingLeft=4;spacingRight=4;overflow=hidden;rotatable=0;points=[[0,0.5],[1,0.5]];portConstraint=eastwest;whiteSpace=wrap;html=1;" parent="Rozw7FEZMequt8gv9AbR-3" vertex="1">
          <mxGeometry y="320" width="360" height="26" as="geometry" />
        </mxCell>
        <mxCell id="0A_gl6fZEAyYafF4eutT-12" value="+ update(id: int | string, data: EmployeeScheduleDTO): boolean" style="text;strokeColor=none;fillColor=none;align=left;verticalAlign=top;spacingLeft=4;spacingRight=4;overflow=hidden;rotatable=0;points=[[0,0.5],[1,0.5]];portConstraint=eastwest;whiteSpace=wrap;html=1;" parent="Rozw7FEZMequt8gv9AbR-3" vertex="1">
          <mxGeometry y="346" width="360" height="26" as="geometry" />
        </mxCell>
        <mxCell id="0A_gl6fZEAyYafF4eutT-13" value="+ delete(id: int | string): boolean" style="text;strokeColor=none;fillColor=none;align=left;verticalAlign=top;spacingLeft=4;spacingRight=4;overflow=hidden;rotatable=0;points=[[0,0.5],[1,0.5]];portConstraint=eastwest;whiteSpace=wrap;html=1;" parent="Rozw7FEZMequt8gv9AbR-3" vertex="1">
          <mxGeometry y="372" width="360" height="26" as="geometry" />
        </mxCell>
        <mxCell id="0A_gl6fZEAyYafF4eutT-14" value="EmployeeLeave" style="swimlane;fontStyle=1;align=center;verticalAlign=top;childLayout=stackLayout;horizontal=1;startSize=26;horizontalStack=0;resizeParent=1;resizeParentMax=0;resizeLast=0;collapsible=1;marginBottom=0;whiteSpace=wrap;html=1;" parent="1" vertex="1">
          <mxGeometry x="360" y="450" width="390" height="320" as="geometry" />
        </mxCell>
        <mxCell id="0A_gl6fZEAyYafF4eutT-22" value="+ id: int" style="text;strokeColor=none;fillColor=none;align=left;verticalAlign=top;spacingLeft=4;spacingRight=4;overflow=hidden;rotatable=0;points=[[0,0.5],[1,0.5]];portConstraint=eastwest;whiteSpace=wrap;html=1;" parent="0A_gl6fZEAyYafF4eutT-14" vertex="1">
          <mxGeometry y="26" width="390" height="26" as="geometry" />
        </mxCell>
        <mxCell id="f29qvKTKdPW8XwoqMaMl-2" value="+ document_number: string" style="text;strokeColor=none;fillColor=none;align=left;verticalAlign=top;spacingLeft=4;spacingRight=4;overflow=hidden;rotatable=0;points=[[0,0.5],[1,0.5]];portConstraint=eastwest;whiteSpace=wrap;html=1;" parent="0A_gl6fZEAyYafF4eutT-14" vertex="1">
          <mxGeometry y="52" width="390" height="26" as="geometry" />
        </mxCell>
        <mxCell id="0A_gl6fZEAyYafF4eutT-23" value="+ employee_id: int" style="text;strokeColor=none;fillColor=none;align=left;verticalAlign=top;spacingLeft=4;spacingRight=4;overflow=hidden;rotatable=0;points=[[0,0.5],[1,0.5]];portConstraint=eastwest;whiteSpace=wrap;html=1;" parent="0A_gl6fZEAyYafF4eutT-14" vertex="1">
          <mxGeometry y="78" width="390" height="26" as="geometry" />
        </mxCell>
        <mxCell id="0A_gl6fZEAyYafF4eutT-24" value="+ start_date: date" style="text;strokeColor=none;fillColor=none;align=left;verticalAlign=top;spacingLeft=4;spacingRight=4;overflow=hidden;rotatable=0;points=[[0,0.5],[1,0.5]];portConstraint=eastwest;whiteSpace=wrap;html=1;" parent="0A_gl6fZEAyYafF4eutT-14" vertex="1">
          <mxGeometry y="104" width="390" height="26" as="geometry" />
        </mxCell>
        <mxCell id="0A_gl6fZEAyYafF4eutT-25" value="+ end_date: date" style="text;strokeColor=none;fillColor=none;align=left;verticalAlign=top;spacingLeft=4;spacingRight=4;overflow=hidden;rotatable=0;points=[[0,0.5],[1,0.5]];portConstraint=eastwest;whiteSpace=wrap;html=1;" parent="0A_gl6fZEAyYafF4eutT-14" vertex="1">
          <mxGeometry y="130" width="390" height="26" as="geometry" />
        </mxCell>
        <mxCell id="0A_gl6fZEAyYafF4eutT-26" value="+ status: enum(&#39;on_progress&#39;, &#39;approved&#39;, &#39;rejected&#39;)" style="text;strokeColor=none;fillColor=none;align=left;verticalAlign=top;spacingLeft=4;spacingRight=4;overflow=hidden;rotatable=0;points=[[0,0.5],[1,0.5]];portConstraint=eastwest;whiteSpace=wrap;html=1;" parent="0A_gl6fZEAyYafF4eutT-14" vertex="1">
          <mxGeometry y="156" width="390" height="26" as="geometry" />
        </mxCell>
        <mxCell id="0A_gl6fZEAyYafF4eutT-16" value="" style="line;strokeWidth=1;fillColor=none;align=left;verticalAlign=middle;spacingTop=-1;spacingLeft=3;spacingRight=3;rotatable=0;labelPosition=right;points=[];portConstraint=eastwest;strokeColor=inherit;" parent="0A_gl6fZEAyYafF4eutT-14" vertex="1">
          <mxGeometry y="182" width="390" height="8" as="geometry" />
        </mxCell>
        <mxCell id="0A_gl6fZEAyYafF4eutT-27" value="+ findAll(): EmployeeLeave[]" style="text;strokeColor=none;fillColor=none;align=left;verticalAlign=top;spacingLeft=4;spacingRight=4;overflow=hidden;rotatable=0;points=[[0,0.5],[1,0.5]];portConstraint=eastwest;whiteSpace=wrap;html=1;" parent="0A_gl6fZEAyYafF4eutT-14" vertex="1">
          <mxGeometry y="190" width="390" height="26" as="geometry" />
        </mxCell>
        <mxCell id="0A_gl6fZEAyYafF4eutT-28" value="+ find(id: int | string): EmployeeLeave" style="text;strokeColor=none;fillColor=none;align=left;verticalAlign=top;spacingLeft=4;spacingRight=4;overflow=hidden;rotatable=0;points=[[0,0.5],[1,0.5]];portConstraint=eastwest;whiteSpace=wrap;html=1;" parent="0A_gl6fZEAyYafF4eutT-14" vertex="1">
          <mxGeometry y="216" width="390" height="26" as="geometry" />
        </mxCell>
        <mxCell id="0A_gl6fZEAyYafF4eutT-29" value="+ save(data: EmployeeLeaveDTO): boolean" style="text;strokeColor=none;fillColor=none;align=left;verticalAlign=top;spacingLeft=4;spacingRight=4;overflow=hidden;rotatable=0;points=[[0,0.5],[1,0.5]];portConstraint=eastwest;whiteSpace=wrap;html=1;" parent="0A_gl6fZEAyYafF4eutT-14" vertex="1">
          <mxGeometry y="242" width="390" height="26" as="geometry" />
        </mxCell>
        <mxCell id="0A_gl6fZEAyYafF4eutT-30" value="+ update(id: int | string, data: EmployeeLeaveDTO): boolean" style="text;strokeColor=none;fillColor=none;align=left;verticalAlign=top;spacingLeft=4;spacingRight=4;overflow=hidden;rotatable=0;points=[[0,0.5],[1,0.5]];portConstraint=eastwest;whiteSpace=wrap;html=1;" parent="0A_gl6fZEAyYafF4eutT-14" vertex="1">
          <mxGeometry y="268" width="390" height="26" as="geometry" />
        </mxCell>
        <mxCell id="0A_gl6fZEAyYafF4eutT-31" value="+ delete(id: int | string): boolean" style="text;strokeColor=none;fillColor=none;align=left;verticalAlign=top;spacingLeft=4;spacingRight=4;overflow=hidden;rotatable=0;points=[[0,0.5],[1,0.5]];portConstraint=eastwest;whiteSpace=wrap;html=1;" parent="0A_gl6fZEAyYafF4eutT-14" vertex="1">
          <mxGeometry y="294" width="390" height="26" as="geometry" />
        </mxCell>
        <mxCell id="0A_gl6fZEAyYafF4eutT-36" value="EmployeeScheduleDTO" style="swimlane;fontStyle=0;childLayout=stackLayout;horizontal=1;startSize=26;fillColor=none;horizontalStack=0;resizeParent=1;resizeParentMax=0;resizeLast=0;collapsible=1;marginBottom=0;whiteSpace=wrap;html=1;" parent="1" vertex="1">
          <mxGeometry x="-495" y="450" width="375" height="182" as="geometry" />
        </mxCell>
        <mxCell id="0A_gl6fZEAyYafF4eutT-40" value="+ employee_id?: int" style="text;strokeColor=none;fillColor=none;align=left;verticalAlign=top;spacingLeft=4;spacingRight=4;overflow=hidden;rotatable=0;points=[[0,0.5],[1,0.5]];portConstraint=eastwest;whiteSpace=wrap;html=1;" parent="0A_gl6fZEAyYafF4eutT-36" vertex="1">
          <mxGeometry y="26" width="375" height="26" as="geometry" />
        </mxCell>
        <mxCell id="0A_gl6fZEAyYafF4eutT-41" value="+ date?: date" style="text;strokeColor=none;fillColor=none;align=left;verticalAlign=top;spacingLeft=4;spacingRight=4;overflow=hidden;rotatable=0;points=[[0,0.5],[1,0.5]];portConstraint=eastwest;whiteSpace=wrap;html=1;" parent="0A_gl6fZEAyYafF4eutT-36" vertex="1">
          <mxGeometry y="52" width="375" height="26" as="geometry" />
        </mxCell>
        <mxCell id="0A_gl6fZEAyYafF4eutT-42" value="+ start_time?: time" style="text;strokeColor=none;fillColor=none;align=left;verticalAlign=top;spacingLeft=4;spacingRight=4;overflow=hidden;rotatable=0;points=[[0,0.5],[1,0.5]];portConstraint=eastwest;whiteSpace=wrap;html=1;" parent="0A_gl6fZEAyYafF4eutT-36" vertex="1">
          <mxGeometry y="78" width="375" height="26" as="geometry" />
        </mxCell>
        <mxCell id="0A_gl6fZEAyYafF4eutT-43" value="+ end_time?: time" style="text;strokeColor=none;fillColor=none;align=left;verticalAlign=top;spacingLeft=4;spacingRight=4;overflow=hidden;rotatable=0;points=[[0,0.5],[1,0.5]];portConstraint=eastwest;whiteSpace=wrap;html=1;" parent="0A_gl6fZEAyYafF4eutT-36" vertex="1">
          <mxGeometry y="104" width="375" height="26" as="geometry" />
        </mxCell>
        <mxCell id="0A_gl6fZEAyYafF4eutT-44" value="+ work_type?: enum(&#39;shift&#39;, &#39;regular&#39;)" style="text;strokeColor=none;fillColor=none;align=left;verticalAlign=top;spacingLeft=4;spacingRight=4;overflow=hidden;rotatable=0;points=[[0,0.5],[1,0.5]];portConstraint=eastwest;whiteSpace=wrap;html=1;" parent="0A_gl6fZEAyYafF4eutT-36" vertex="1">
          <mxGeometry y="130" width="375" height="26" as="geometry" />
        </mxCell>
        <mxCell id="0A_gl6fZEAyYafF4eutT-45" value="+ work_time?: enum(&#39;morning&#39;, &#39;afternoon&#39;, &#39;night&#39;,&amp;nbsp; &#39;regular&#39;)" style="text;strokeColor=none;fillColor=none;align=left;verticalAlign=top;spacingLeft=4;spacingRight=4;overflow=hidden;rotatable=0;points=[[0,0.5],[1,0.5]];portConstraint=eastwest;whiteSpace=wrap;html=1;" parent="0A_gl6fZEAyYafF4eutT-36" vertex="1">
          <mxGeometry y="156" width="375" height="26" as="geometry" />
        </mxCell>
        <mxCell id="0A_gl6fZEAyYafF4eutT-47" value="EmployeeLeaveDTO" style="swimlane;fontStyle=0;childLayout=stackLayout;horizontal=1;startSize=26;fillColor=none;horizontalStack=0;resizeParent=1;resizeParentMax=0;resizeLast=0;collapsible=1;marginBottom=0;whiteSpace=wrap;html=1;" parent="1" vertex="1">
          <mxGeometry x="420" y="830" width="305" height="130" as="geometry" />
        </mxCell>
        <mxCell id="0A_gl6fZEAyYafF4eutT-55" value="+ employee_id?: int" style="text;strokeColor=none;fillColor=none;align=left;verticalAlign=top;spacingLeft=4;spacingRight=4;overflow=hidden;rotatable=0;points=[[0,0.5],[1,0.5]];portConstraint=eastwest;whiteSpace=wrap;html=1;" parent="0A_gl6fZEAyYafF4eutT-47" vertex="1">
          <mxGeometry y="26" width="305" height="26" as="geometry" />
        </mxCell>
        <mxCell id="0A_gl6fZEAyYafF4eutT-56" value="+ start_date?: date" style="text;strokeColor=none;fillColor=none;align=left;verticalAlign=top;spacingLeft=4;spacingRight=4;overflow=hidden;rotatable=0;points=[[0,0.5],[1,0.5]];portConstraint=eastwest;whiteSpace=wrap;html=1;" parent="0A_gl6fZEAyYafF4eutT-47" vertex="1">
          <mxGeometry y="52" width="305" height="26" as="geometry" />
        </mxCell>
        <mxCell id="0A_gl6fZEAyYafF4eutT-57" value="+ end_date?: date" style="text;strokeColor=none;fillColor=none;align=left;verticalAlign=top;spacingLeft=4;spacingRight=4;overflow=hidden;rotatable=0;points=[[0,0.5],[1,0.5]];portConstraint=eastwest;whiteSpace=wrap;html=1;" parent="0A_gl6fZEAyYafF4eutT-47" vertex="1">
          <mxGeometry y="78" width="305" height="26" as="geometry" />
        </mxCell>
        <mxCell id="0A_gl6fZEAyYafF4eutT-58" value="+ status?: enum(&#39;on_progress&#39;, &#39;approved&#39;, &#39;rejected&#39;)" style="text;strokeColor=none;fillColor=none;align=left;verticalAlign=top;spacingLeft=4;spacingRight=4;overflow=hidden;rotatable=0;points=[[0,0.5],[1,0.5]];portConstraint=eastwest;whiteSpace=wrap;html=1;" parent="0A_gl6fZEAyYafF4eutT-47" vertex="1">
          <mxGeometry y="104" width="305" height="26" as="geometry" />
        </mxCell>
        <mxCell id="0A_gl6fZEAyYafF4eutT-59" value="" style="edgeStyle=orthogonalEdgeStyle;fontSize=12;html=1;endArrow=ERzeroToMany;startArrow=ERmandOne;rounded=0;exitX=0;exitY=0.5;exitDx=0;exitDy=0;" parent="1" source="4wDXa8H8jrL8yddJZhal-21" target="Rozw7FEZMequt8gv9AbR-3" edge="1">
          <mxGeometry width="100" height="100" relative="1" as="geometry">
            <mxPoint x="190" y="500" as="sourcePoint" />
            <mxPoint x="290" y="400" as="targetPoint" />
            <Array as="points">
              <mxPoint x="340" y="285" />
              <mxPoint x="340" y="583" />
            </Array>
          </mxGeometry>
        </mxCell>
        <mxCell id="0A_gl6fZEAyYafF4eutT-60" value="" style="edgeStyle=orthogonalEdgeStyle;fontSize=12;html=1;endArrow=ERzeroToMany;startArrow=ERmandOne;rounded=0;entryX=1;entryY=0.5;entryDx=0;entryDy=0;exitX=1;exitY=0.5;exitDx=0;exitDy=0;" parent="1" source="4wDXa8H8jrL8yddJZhal-30" target="0A_gl6fZEAyYafF4eutT-22" edge="1">
          <mxGeometry width="100" height="100" relative="1" as="geometry">
            <mxPoint x="623.5616438356165" y="390" as="sourcePoint" />
            <mxPoint x="420" y="320" as="targetPoint" />
            <Array as="points">
              <mxPoint x="770" y="363" />
              <mxPoint x="770" y="489" />
            </Array>
          </mxGeometry>
        </mxCell>
        <mxCell id="XMsr4x2dm6bdnRJnTC9y-1" value="" style="edgeStyle=orthogonalEdgeStyle;fontSize=12;html=1;endArrow=ERzeroToMany;startArrow=ERmandOne;rounded=0;" parent="1" source="4wDXa8H8jrL8yddJZhal-67" target="4wDXa8H8jrL8yddJZhal-14" edge="1">
          <mxGeometry width="100" height="100" relative="1" as="geometry">
            <mxPoint x="590" y="260" as="sourcePoint" />
            <mxPoint x="690" y="160" as="targetPoint" />
          </mxGeometry>
        </mxCell>
        <mxCell id="XMsr4x2dm6bdnRJnTC9y-2" value="" style="edgeStyle=orthogonalEdgeStyle;fontSize=12;html=1;endArrow=ERzeroToMany;startArrow=ERmandOne;rounded=0;strokeColor=default;align=center;verticalAlign=middle;fontFamily=Helvetica;fontColor=default;labelBackgroundColor=default;entryX=1;entryY=0.5;entryDx=0;entryDy=0;exitX=0.5;exitY=0;exitDx=0;exitDy=0;" parent="1" source="MshQBY4aJP5PxyMLOKjv-1" target="4wDXa8H8jrL8yddJZhal-22" edge="1">
          <mxGeometry width="100" height="100" relative="1" as="geometry">
            <mxPoint x="650" y="490" as="sourcePoint" />
            <mxPoint x="750" y="390" as="targetPoint" />
          </mxGeometry>
        </mxCell>
        <mxCell id="XMsr4x2dm6bdnRJnTC9y-3" value="" style="edgeStyle=orthogonalEdgeStyle;fontSize=12;html=1;endArrow=ERzeroToMany;startArrow=ERmandOne;rounded=0;strokeColor=default;align=center;verticalAlign=middle;fontFamily=Helvetica;fontColor=default;labelBackgroundColor=default;" parent="1" source="JFUeuGTlJTX4tr9S2qWD-1" target="_KKGXcrLF3VbKyN5nEoX-6" edge="1">
          <mxGeometry width="100" height="100" relative="1" as="geometry">
            <mxPoint x="-80" y="240" as="sourcePoint" />
            <mxPoint x="20" y="140" as="targetPoint" />
          </mxGeometry>
        </mxCell>
      </root>
    </mxGraphModel>
  </diagram>
  <diagram id="uMIr5ccbpPgDVw3iMjWq" name="dashboard-activity-diagram">
    <mxGraphModel dx="1221" dy="823" grid="1" gridSize="10" guides="1" tooltips="1" connect="1" arrows="1" fold="1" page="1" pageScale="1" pageWidth="850" pageHeight="1100" math="0" shadow="0">
      <root>
        <mxCell id="0" />
        <mxCell id="1" parent="0" />
        <mxCell id="Rx_zeWfW__smRfJ1rPjC-1" value="User" style="swimlane;whiteSpace=wrap;html=1;" parent="1" vertex="1">
          <mxGeometry x="90" y="140" width="200" height="610" as="geometry" />
        </mxCell>
        <mxCell id="Rx_zeWfW__smRfJ1rPjC-64" value="" style="ellipse;html=1;shape=startState;fillColor=#000000;strokeColor=#ff0000;" parent="Rx_zeWfW__smRfJ1rPjC-1" vertex="1">
          <mxGeometry x="85" y="50" width="30" height="30" as="geometry" />
        </mxCell>
        <mxCell id="Rx_zeWfW__smRfJ1rPjC-2" value="System" style="swimlane;whiteSpace=wrap;html=1;" parent="1" vertex="1">
          <mxGeometry x="290" y="140" width="300" height="610" as="geometry" />
        </mxCell>
        <mxCell id="Rx_zeWfW__smRfJ1rPjC-10" value="" style="edgeStyle=orthogonalEdgeStyle;rounded=0;orthogonalLoop=1;jettySize=auto;html=1;" parent="Rx_zeWfW__smRfJ1rPjC-2" source="Rx_zeWfW__smRfJ1rPjC-7" target="Rx_zeWfW__smRfJ1rPjC-9" edge="1">
          <mxGeometry relative="1" as="geometry" />
        </mxCell>
        <mxCell id="Rx_zeWfW__smRfJ1rPjC-15" style="edgeStyle=orthogonalEdgeStyle;rounded=0;orthogonalLoop=1;jettySize=auto;html=1;entryX=1;entryY=0.5;entryDx=0;entryDy=0;" parent="Rx_zeWfW__smRfJ1rPjC-2" source="Rx_zeWfW__smRfJ1rPjC-9" target="Rx_zeWfW__smRfJ1rPjC-14" edge="1">
          <mxGeometry relative="1" as="geometry" />
        </mxCell>
        <mxCell id="Rx_zeWfW__smRfJ1rPjC-18" style="edgeStyle=orthogonalEdgeStyle;rounded=0;orthogonalLoop=1;jettySize=auto;html=1;entryX=0.5;entryY=0;entryDx=0;entryDy=0;" parent="Rx_zeWfW__smRfJ1rPjC-2" source="Rx_zeWfW__smRfJ1rPjC-9" target="Rx_zeWfW__smRfJ1rPjC-17" edge="1">
          <mxGeometry relative="1" as="geometry" />
        </mxCell>
        <mxCell id="Rx_zeWfW__smRfJ1rPjC-3" value="Fill form" style="html=1;dashed=0;whiteSpace=wrap;" parent="Rx_zeWfW__smRfJ1rPjC-2" vertex="1">
          <mxGeometry x="-150" y="110" width="100" height="50" as="geometry" />
        </mxCell>
        <mxCell id="Rx_zeWfW__smRfJ1rPjC-4" value="Submit form" style="html=1;dashed=0;whiteSpace=wrap;" parent="Rx_zeWfW__smRfJ1rPjC-2" vertex="1">
          <mxGeometry x="-150" y="240" width="100" height="50" as="geometry" />
        </mxCell>
        <mxCell id="Rx_zeWfW__smRfJ1rPjC-7" value="Authenticate" style="html=1;dashed=0;whiteSpace=wrap;" parent="Rx_zeWfW__smRfJ1rPjC-2" vertex="1">
          <mxGeometry x="170" y="240" width="100" height="50" as="geometry" />
        </mxCell>
        <mxCell id="Rx_zeWfW__smRfJ1rPjC-8" value="" style="edgeStyle=orthogonalEdgeStyle;rounded=0;orthogonalLoop=1;jettySize=auto;html=1;" parent="Rx_zeWfW__smRfJ1rPjC-2" source="Rx_zeWfW__smRfJ1rPjC-4" target="Rx_zeWfW__smRfJ1rPjC-7" edge="1">
          <mxGeometry relative="1" as="geometry" />
        </mxCell>
        <mxCell id="Rx_zeWfW__smRfJ1rPjC-71" value="" style="edgeStyle=orthogonalEdgeStyle;rounded=0;orthogonalLoop=1;jettySize=auto;html=1;" parent="Rx_zeWfW__smRfJ1rPjC-2" source="Rx_zeWfW__smRfJ1rPjC-14" target="Rx_zeWfW__smRfJ1rPjC-70" edge="1">
          <mxGeometry relative="1" as="geometry" />
        </mxCell>
        <mxCell id="Rx_zeWfW__smRfJ1rPjC-14" value="Show error messages" style="html=1;dashed=0;whiteSpace=wrap;" parent="Rx_zeWfW__smRfJ1rPjC-2" vertex="1">
          <mxGeometry x="20" y="347.5" width="100" height="50" as="geometry" />
        </mxCell>
        <mxCell id="Rx_zeWfW__smRfJ1rPjC-5" value="" style="edgeStyle=orthogonalEdgeStyle;rounded=0;orthogonalLoop=1;jettySize=auto;html=1;" parent="Rx_zeWfW__smRfJ1rPjC-2" source="Rx_zeWfW__smRfJ1rPjC-3" target="Rx_zeWfW__smRfJ1rPjC-4" edge="1">
          <mxGeometry relative="1" as="geometry" />
        </mxCell>
        <mxCell id="Rx_zeWfW__smRfJ1rPjC-9" value="A&lt;span style=&quot;background-color: initial;&quot;&gt;utheticated?&lt;/span&gt;" style="rhombus;whiteSpace=wrap;html=1;dashed=0;" parent="Rx_zeWfW__smRfJ1rPjC-2" vertex="1">
          <mxGeometry x="175" y="330" width="90" height="85" as="geometry" />
        </mxCell>
        <mxCell id="Rx_zeWfW__smRfJ1rPjC-67" style="edgeStyle=orthogonalEdgeStyle;rounded=0;orthogonalLoop=1;jettySize=auto;html=1;" parent="Rx_zeWfW__smRfJ1rPjC-2" source="Rx_zeWfW__smRfJ1rPjC-17" target="Rx_zeWfW__smRfJ1rPjC-66" edge="1">
          <mxGeometry relative="1" as="geometry" />
        </mxCell>
        <mxCell id="Rx_zeWfW__smRfJ1rPjC-17" value="Redirect to dashboard" style="html=1;dashed=0;whiteSpace=wrap;" parent="Rx_zeWfW__smRfJ1rPjC-2" vertex="1">
          <mxGeometry x="170" y="460" width="100" height="50" as="geometry" />
        </mxCell>
        <mxCell id="Rx_zeWfW__smRfJ1rPjC-19" value="yes" style="text;html=1;align=center;verticalAlign=middle;resizable=0;points=[];autosize=1;strokeColor=none;fillColor=none;" parent="Rx_zeWfW__smRfJ1rPjC-2" vertex="1">
          <mxGeometry x="220" y="418" width="40" height="30" as="geometry" />
        </mxCell>
        <mxCell id="Rx_zeWfW__smRfJ1rPjC-16" value="no" style="text;html=1;align=center;verticalAlign=middle;resizable=0;points=[];autosize=1;strokeColor=none;fillColor=none;" parent="Rx_zeWfW__smRfJ1rPjC-2" vertex="1">
          <mxGeometry x="131" y="345" width="40" height="30" as="geometry" />
        </mxCell>
        <mxCell id="Rx_zeWfW__smRfJ1rPjC-66" value="" style="ellipse;html=1;shape=endState;fillColor=#000000;strokeColor=#ff0000;" parent="Rx_zeWfW__smRfJ1rPjC-2" vertex="1">
          <mxGeometry x="205" y="550" width="30" height="30" as="geometry" />
        </mxCell>
        <mxCell id="Rx_zeWfW__smRfJ1rPjC-72" style="edgeStyle=orthogonalEdgeStyle;rounded=0;orthogonalLoop=1;jettySize=auto;html=1;entryX=0;entryY=0.5;entryDx=0;entryDy=0;exitX=0.5;exitY=1;exitDx=0;exitDy=0;" parent="Rx_zeWfW__smRfJ1rPjC-2" source="Rx_zeWfW__smRfJ1rPjC-70" target="Rx_zeWfW__smRfJ1rPjC-66" edge="1">
          <mxGeometry relative="1" as="geometry" />
        </mxCell>
        <mxCell id="Rx_zeWfW__smRfJ1rPjC-73" style="edgeStyle=orthogonalEdgeStyle;rounded=0;orthogonalLoop=1;jettySize=auto;html=1;entryX=0;entryY=0.5;entryDx=0;entryDy=0;" parent="Rx_zeWfW__smRfJ1rPjC-2" source="Rx_zeWfW__smRfJ1rPjC-70" target="Rx_zeWfW__smRfJ1rPjC-3" edge="1">
          <mxGeometry relative="1" as="geometry" />
        </mxCell>
        <mxCell id="Rx_zeWfW__smRfJ1rPjC-70" value="Try again?" style="rhombus;whiteSpace=wrap;html=1;dashed=0;" parent="Rx_zeWfW__smRfJ1rPjC-2" vertex="1">
          <mxGeometry x="30" y="448" width="80" height="80" as="geometry" />
        </mxCell>
        <mxCell id="Rx_zeWfW__smRfJ1rPjC-20" value="Login AD" style="text;html=1;align=center;verticalAlign=middle;resizable=0;points=[];autosize=1;strokeColor=none;fillColor=none;fontStyle=1;fontSize=32;" parent="1" vertex="1">
          <mxGeometry x="260" y="80" width="150" height="50" as="geometry" />
        </mxCell>
        <mxCell id="Rx_zeWfW__smRfJ1rPjC-21" value="User" style="swimlane;whiteSpace=wrap;html=1;" parent="1" vertex="1">
          <mxGeometry x="670" y="140" width="200" height="700" as="geometry" />
        </mxCell>
        <mxCell id="Rx_zeWfW__smRfJ1rPjC-76" value="" style="ellipse;html=1;shape=startState;fillColor=#000000;strokeColor=#ff0000;" parent="Rx_zeWfW__smRfJ1rPjC-21" vertex="1">
          <mxGeometry x="85" y="50" width="30" height="30" as="geometry" />
        </mxCell>
        <mxCell id="Rx_zeWfW__smRfJ1rPjC-25" value="System" style="swimlane;whiteSpace=wrap;html=1;" parent="1" vertex="1">
          <mxGeometry x="870" y="140" width="300" height="700" as="geometry" />
        </mxCell>
        <mxCell id="Rx_zeWfW__smRfJ1rPjC-22" value="" style="edgeStyle=orthogonalEdgeStyle;rounded=0;orthogonalLoop=1;jettySize=auto;html=1;" parent="Rx_zeWfW__smRfJ1rPjC-25" source="Rx_zeWfW__smRfJ1rPjC-23" target="Rx_zeWfW__smRfJ1rPjC-24" edge="1">
          <mxGeometry relative="1" as="geometry" />
        </mxCell>
        <mxCell id="Rx_zeWfW__smRfJ1rPjC-23" value="Fill form" style="html=1;dashed=0;whiteSpace=wrap;" parent="Rx_zeWfW__smRfJ1rPjC-25" vertex="1">
          <mxGeometry x="-150" y="110" width="100" height="50" as="geometry" />
        </mxCell>
        <mxCell id="Rx_zeWfW__smRfJ1rPjC-24" value="Submit form" style="html=1;dashed=0;whiteSpace=wrap;" parent="Rx_zeWfW__smRfJ1rPjC-25" vertex="1">
          <mxGeometry x="-150" y="240" width="100" height="50" as="geometry" />
        </mxCell>
        <mxCell id="Rx_zeWfW__smRfJ1rPjC-37" value="" style="edgeStyle=orthogonalEdgeStyle;rounded=0;orthogonalLoop=1;jettySize=auto;html=1;" parent="Rx_zeWfW__smRfJ1rPjC-25" source="Rx_zeWfW__smRfJ1rPjC-34" target="Rx_zeWfW__smRfJ1rPjC-36" edge="1">
          <mxGeometry relative="1" as="geometry" />
        </mxCell>
        <mxCell id="Rx_zeWfW__smRfJ1rPjC-34" value="Validate" style="html=1;dashed=0;whiteSpace=wrap;" parent="Rx_zeWfW__smRfJ1rPjC-25" vertex="1">
          <mxGeometry x="150" y="240" width="100" height="50" as="geometry" />
        </mxCell>
        <mxCell id="Rx_zeWfW__smRfJ1rPjC-39" style="edgeStyle=orthogonalEdgeStyle;rounded=0;orthogonalLoop=1;jettySize=auto;html=1;entryX=1;entryY=0.5;entryDx=0;entryDy=0;" parent="Rx_zeWfW__smRfJ1rPjC-25" source="Rx_zeWfW__smRfJ1rPjC-36" target="Rx_zeWfW__smRfJ1rPjC-38" edge="1">
          <mxGeometry relative="1" as="geometry" />
        </mxCell>
        <mxCell id="Rx_zeWfW__smRfJ1rPjC-36" value="Validated?" style="rhombus;whiteSpace=wrap;html=1;dashed=0;" parent="Rx_zeWfW__smRfJ1rPjC-25" vertex="1">
          <mxGeometry x="160" y="355" width="80" height="80" as="geometry" />
        </mxCell>
        <mxCell id="Rx_zeWfW__smRfJ1rPjC-80" style="edgeStyle=orthogonalEdgeStyle;rounded=0;orthogonalLoop=1;jettySize=auto;html=1;entryX=0.5;entryY=0;entryDx=0;entryDy=0;" parent="Rx_zeWfW__smRfJ1rPjC-25" source="Rx_zeWfW__smRfJ1rPjC-38" target="Rx_zeWfW__smRfJ1rPjC-79" edge="1">
          <mxGeometry relative="1" as="geometry" />
        </mxCell>
        <mxCell id="Rx_zeWfW__smRfJ1rPjC-38" value="Show error messages" style="html=1;dashed=0;whiteSpace=wrap;" parent="Rx_zeWfW__smRfJ1rPjC-25" vertex="1">
          <mxGeometry x="20" y="370" width="100" height="50" as="geometry" />
        </mxCell>
        <mxCell id="Rx_zeWfW__smRfJ1rPjC-35" value="" style="edgeStyle=orthogonalEdgeStyle;rounded=0;orthogonalLoop=1;jettySize=auto;html=1;" parent="Rx_zeWfW__smRfJ1rPjC-25" source="Rx_zeWfW__smRfJ1rPjC-24" target="Rx_zeWfW__smRfJ1rPjC-34" edge="1">
          <mxGeometry relative="1" as="geometry" />
        </mxCell>
        <mxCell id="Rx_zeWfW__smRfJ1rPjC-41" value="no" style="text;html=1;align=center;verticalAlign=middle;resizable=0;points=[];autosize=1;strokeColor=none;fillColor=none;" parent="Rx_zeWfW__smRfJ1rPjC-25" vertex="1">
          <mxGeometry x="125" y="365" width="40" height="30" as="geometry" />
        </mxCell>
        <mxCell id="Rx_zeWfW__smRfJ1rPjC-48" value="Review registration" style="html=1;dashed=0;whiteSpace=wrap;" parent="Rx_zeWfW__smRfJ1rPjC-25" vertex="1">
          <mxGeometry x="350" y="370" width="100" height="50" as="geometry" />
        </mxCell>
        <mxCell id="Rx_zeWfW__smRfJ1rPjC-49" style="edgeStyle=orthogonalEdgeStyle;rounded=0;orthogonalLoop=1;jettySize=auto;html=1;entryX=0;entryY=0.5;entryDx=0;entryDy=0;" parent="Rx_zeWfW__smRfJ1rPjC-25" source="Rx_zeWfW__smRfJ1rPjC-36" target="Rx_zeWfW__smRfJ1rPjC-48" edge="1">
          <mxGeometry relative="1" as="geometry" />
        </mxCell>
        <mxCell id="Rx_zeWfW__smRfJ1rPjC-50" value="yes" style="text;html=1;align=center;verticalAlign=middle;resizable=0;points=[];autosize=1;strokeColor=none;fillColor=none;" parent="Rx_zeWfW__smRfJ1rPjC-25" vertex="1">
          <mxGeometry x="253" y="370" width="40" height="30" as="geometry" />
        </mxCell>
        <mxCell id="Rx_zeWfW__smRfJ1rPjC-81" style="edgeStyle=orthogonalEdgeStyle;rounded=0;orthogonalLoop=1;jettySize=auto;html=1;entryX=0;entryY=0.5;entryDx=0;entryDy=0;" parent="Rx_zeWfW__smRfJ1rPjC-25" source="Rx_zeWfW__smRfJ1rPjC-79" target="Rx_zeWfW__smRfJ1rPjC-82" edge="1">
          <mxGeometry relative="1" as="geometry">
            <mxPoint x="180" y="490" as="targetPoint" />
          </mxGeometry>
        </mxCell>
        <mxCell id="Rx_zeWfW__smRfJ1rPjC-84" style="edgeStyle=orthogonalEdgeStyle;rounded=0;orthogonalLoop=1;jettySize=auto;html=1;entryX=0;entryY=0.5;entryDx=0;entryDy=0;" parent="Rx_zeWfW__smRfJ1rPjC-25" source="Rx_zeWfW__smRfJ1rPjC-79" target="Rx_zeWfW__smRfJ1rPjC-23" edge="1">
          <mxGeometry relative="1" as="geometry" />
        </mxCell>
        <mxCell id="Rx_zeWfW__smRfJ1rPjC-79" value="Try again?" style="rhombus;whiteSpace=wrap;html=1;dashed=0;" parent="Rx_zeWfW__smRfJ1rPjC-25" vertex="1">
          <mxGeometry x="30" y="450" width="80" height="80" as="geometry" />
        </mxCell>
        <mxCell id="Rx_zeWfW__smRfJ1rPjC-82" value="" style="ellipse;html=1;shape=endState;fillColor=#000000;strokeColor=#ff0000;" parent="Rx_zeWfW__smRfJ1rPjC-25" vertex="1">
          <mxGeometry x="185" y="475" width="30" height="30" as="geometry" />
        </mxCell>
        <mxCell id="Rx_zeWfW__smRfJ1rPjC-33" value="Register AD" style="text;html=1;align=center;verticalAlign=middle;resizable=0;points=[];autosize=1;strokeColor=none;fillColor=none;fontStyle=1;fontSize=32;" parent="1" vertex="1">
          <mxGeometry x="925" y="80" width="190" height="50" as="geometry" />
        </mxCell>
        <mxCell id="Rx_zeWfW__smRfJ1rPjC-44" value="Admin" style="swimlane;whiteSpace=wrap;html=1;" parent="1" vertex="1">
          <mxGeometry x="1170" y="140" width="200" height="700" as="geometry" />
        </mxCell>
        <mxCell id="Rx_zeWfW__smRfJ1rPjC-74" value="yes" style="text;html=1;align=center;verticalAlign=middle;resizable=0;points=[];autosize=1;strokeColor=none;fillColor=none;" parent="1" vertex="1">
          <mxGeometry x="200" y="603" width="40" height="30" as="geometry" />
        </mxCell>
        <mxCell id="Rx_zeWfW__smRfJ1rPjC-75" value="no" style="text;html=1;align=center;verticalAlign=middle;resizable=0;points=[];autosize=1;strokeColor=none;fillColor=none;" parent="1" vertex="1">
          <mxGeometry x="411" y="678" width="40" height="30" as="geometry" />
        </mxCell>
        <mxCell id="Rx_zeWfW__smRfJ1rPjC-77" style="edgeStyle=orthogonalEdgeStyle;rounded=0;orthogonalLoop=1;jettySize=auto;html=1;entryX=0.5;entryY=0;entryDx=0;entryDy=0;" parent="1" source="Rx_zeWfW__smRfJ1rPjC-76" target="Rx_zeWfW__smRfJ1rPjC-23" edge="1">
          <mxGeometry relative="1" as="geometry" />
        </mxCell>
        <mxCell id="Rx_zeWfW__smRfJ1rPjC-78" style="edgeStyle=orthogonalEdgeStyle;rounded=0;orthogonalLoop=1;jettySize=auto;html=1;entryX=0.5;entryY=0;entryDx=0;entryDy=0;" parent="1" source="Rx_zeWfW__smRfJ1rPjC-64" target="Rx_zeWfW__smRfJ1rPjC-3" edge="1">
          <mxGeometry relative="1" as="geometry" />
        </mxCell>
        <mxCell id="Rx_zeWfW__smRfJ1rPjC-69" style="edgeStyle=orthogonalEdgeStyle;rounded=0;orthogonalLoop=1;jettySize=auto;html=1;entryX=0.5;entryY=0;entryDx=0;entryDy=0;" parent="1" source="Rx_zeWfW__smRfJ1rPjC-55" target="Rx_zeWfW__smRfJ1rPjC-68" edge="1">
          <mxGeometry relative="1" as="geometry" />
        </mxCell>
        <mxCell id="Rx_zeWfW__smRfJ1rPjC-55" value="Notify user by email" style="html=1;dashed=0;whiteSpace=wrap;" parent="1" vertex="1">
          <mxGeometry x="890" y="685" width="100" height="50" as="geometry" />
        </mxCell>
        <mxCell id="Rx_zeWfW__smRfJ1rPjC-61" style="edgeStyle=orthogonalEdgeStyle;rounded=0;orthogonalLoop=1;jettySize=auto;html=1;entryX=0.75;entryY=1;entryDx=0;entryDy=0;" parent="1" source="Rx_zeWfW__smRfJ1rPjC-60" target="Rx_zeWfW__smRfJ1rPjC-55" edge="1">
          <mxGeometry relative="1" as="geometry" />
        </mxCell>
        <mxCell id="Rx_zeWfW__smRfJ1rPjC-60" value="Save user and employee data" style="html=1;dashed=0;whiteSpace=wrap;" parent="1" vertex="1">
          <mxGeometry x="1020" y="780" width="100" height="50" as="geometry" />
        </mxCell>
        <mxCell id="Rx_zeWfW__smRfJ1rPjC-63" style="edgeStyle=orthogonalEdgeStyle;rounded=0;orthogonalLoop=1;jettySize=auto;html=1;entryX=1;entryY=0.5;entryDx=0;entryDy=0;" parent="1" source="Rx_zeWfW__smRfJ1rPjC-62" target="Rx_zeWfW__smRfJ1rPjC-55" edge="1">
          <mxGeometry relative="1" as="geometry" />
        </mxCell>
        <mxCell id="Rx_zeWfW__smRfJ1rPjC-62" value="Delete user and employee data" style="html=1;dashed=0;whiteSpace=wrap;" parent="1" vertex="1">
          <mxGeometry x="1020" y="685" width="100" height="50" as="geometry" />
        </mxCell>
        <mxCell id="Rx_zeWfW__smRfJ1rPjC-68" value="" style="ellipse;html=1;shape=endState;fillColor=#000000;strokeColor=#ff0000;" parent="1" vertex="1">
          <mxGeometry x="925" y="790" width="30" height="30" as="geometry" />
        </mxCell>
        <mxCell id="Rx_zeWfW__smRfJ1rPjC-51" value="Accepted?" style="rhombus;whiteSpace=wrap;html=1;dashed=0;" parent="1" vertex="1">
          <mxGeometry x="1230" y="670" width="80" height="80" as="geometry" />
        </mxCell>
        <mxCell id="Rx_zeWfW__smRfJ1rPjC-59" value="yes" style="text;html=1;align=center;verticalAlign=middle;resizable=0;points=[];autosize=1;strokeColor=none;fillColor=none;" parent="1" vertex="1">
          <mxGeometry x="1182" y="780" width="40" height="30" as="geometry" />
        </mxCell>
        <mxCell id="Rx_zeWfW__smRfJ1rPjC-56" style="edgeStyle=orthogonalEdgeStyle;rounded=0;orthogonalLoop=1;jettySize=auto;html=1;entryX=1;entryY=0.5;entryDx=0;entryDy=0;" parent="1" source="Rx_zeWfW__smRfJ1rPjC-51" target="Rx_zeWfW__smRfJ1rPjC-62" edge="1">
          <mxGeometry relative="1" as="geometry">
            <mxPoint x="1130" y="710" as="targetPoint" />
          </mxGeometry>
        </mxCell>
        <mxCell id="Rx_zeWfW__smRfJ1rPjC-57" value="no" style="text;html=1;align=center;verticalAlign=middle;resizable=0;points=[];autosize=1;strokeColor=none;fillColor=none;" parent="1" vertex="1">
          <mxGeometry x="1180" y="685" width="40" height="30" as="geometry" />
        </mxCell>
        <mxCell id="Rx_zeWfW__smRfJ1rPjC-58" style="edgeStyle=orthogonalEdgeStyle;rounded=0;orthogonalLoop=1;jettySize=auto;html=1;entryX=1;entryY=0.5;entryDx=0;entryDy=0;" parent="1" source="Rx_zeWfW__smRfJ1rPjC-51" target="Rx_zeWfW__smRfJ1rPjC-60" edge="1">
          <mxGeometry relative="1" as="geometry">
            <mxPoint x="1110" y="770" as="targetPoint" />
            <Array as="points">
              <mxPoint x="1270" y="805" />
            </Array>
          </mxGeometry>
        </mxCell>
        <mxCell id="Rx_zeWfW__smRfJ1rPjC-52" value="" style="edgeStyle=orthogonalEdgeStyle;rounded=0;orthogonalLoop=1;jettySize=auto;html=1;" parent="1" source="Rx_zeWfW__smRfJ1rPjC-48" target="Rx_zeWfW__smRfJ1rPjC-51" edge="1">
          <mxGeometry relative="1" as="geometry" />
        </mxCell>
        <mxCell id="Rx_zeWfW__smRfJ1rPjC-83" value="no" style="text;html=1;align=center;verticalAlign=middle;resizable=0;points=[];autosize=1;strokeColor=none;fillColor=none;" parent="1" vertex="1">
          <mxGeometry x="990" y="605" width="40" height="30" as="geometry" />
        </mxCell>
        <mxCell id="Rx_zeWfW__smRfJ1rPjC-111" value="User" style="swimlane;whiteSpace=wrap;html=1;" parent="1" vertex="1">
          <mxGeometry x="1470" y="140" width="200" height="630" as="geometry" />
        </mxCell>
        <mxCell id="Rx_zeWfW__smRfJ1rPjC-112" value="" style="ellipse;html=1;shape=startState;fillColor=#000000;strokeColor=#ff0000;" parent="Rx_zeWfW__smRfJ1rPjC-111" vertex="1">
          <mxGeometry x="85" y="50" width="30" height="30" as="geometry" />
        </mxCell>
        <mxCell id="Rx_zeWfW__smRfJ1rPjC-138" value="" style="edgeStyle=orthogonalEdgeStyle;rounded=0;orthogonalLoop=1;jettySize=auto;html=1;" parent="Rx_zeWfW__smRfJ1rPjC-111" source="Rx_zeWfW__smRfJ1rPjC-118" target="Rx_zeWfW__smRfJ1rPjC-137" edge="1">
          <mxGeometry relative="1" as="geometry" />
        </mxCell>
        <mxCell id="Rx_zeWfW__smRfJ1rPjC-118" value="Fill from" style="html=1;dashed=0;whiteSpace=wrap;" parent="Rx_zeWfW__smRfJ1rPjC-111" vertex="1">
          <mxGeometry x="50" y="190" width="100" height="50" as="geometry" />
        </mxCell>
        <mxCell id="Rx_zeWfW__smRfJ1rPjC-137" value="Submit form" style="html=1;dashed=0;whiteSpace=wrap;" parent="Rx_zeWfW__smRfJ1rPjC-111" vertex="1">
          <mxGeometry x="50" y="270" width="100" height="50" as="geometry" />
        </mxCell>
        <mxCell id="Rx_zeWfW__smRfJ1rPjC-134" value="yes" style="text;html=1;align=center;verticalAlign=middle;resizable=0;points=[];autosize=1;strokeColor=none;fillColor=none;" parent="Rx_zeWfW__smRfJ1rPjC-111" vertex="1">
          <mxGeometry x="110" y="490" width="40" height="30" as="geometry" />
        </mxCell>
        <mxCell id="Rx_zeWfW__smRfJ1rPjC-113" value="System" style="swimlane;whiteSpace=wrap;html=1;" parent="1" vertex="1">
          <mxGeometry x="1670" y="140" width="300" height="630" as="geometry" />
        </mxCell>
        <mxCell id="Rx_zeWfW__smRfJ1rPjC-140" value="" style="edgeStyle=orthogonalEdgeStyle;rounded=0;orthogonalLoop=1;jettySize=auto;html=1;" parent="Rx_zeWfW__smRfJ1rPjC-113" source="Rx_zeWfW__smRfJ1rPjC-117" target="Rx_zeWfW__smRfJ1rPjC-139" edge="1">
          <mxGeometry relative="1" as="geometry" />
        </mxCell>
        <mxCell id="Rx_zeWfW__smRfJ1rPjC-117" value="Choose CRUD action" style="html=1;dashed=0;whiteSpace=wrap;" parent="Rx_zeWfW__smRfJ1rPjC-113" vertex="1">
          <mxGeometry x="-150" y="110" width="100" height="50" as="geometry" />
        </mxCell>
        <mxCell id="Rx_zeWfW__smRfJ1rPjC-131" style="edgeStyle=orthogonalEdgeStyle;rounded=0;orthogonalLoop=1;jettySize=auto;html=1;entryX=0;entryY=0.5;entryDx=0;entryDy=0;" parent="Rx_zeWfW__smRfJ1rPjC-113" source="Rx_zeWfW__smRfJ1rPjC-132" target="Rx_zeWfW__smRfJ1rPjC-117" edge="1">
          <mxGeometry relative="1" as="geometry" />
        </mxCell>
        <mxCell id="Rx_zeWfW__smRfJ1rPjC-114" value="" style="edgeStyle=orthogonalEdgeStyle;rounded=0;orthogonalLoop=1;jettySize=auto;html=1;" parent="Rx_zeWfW__smRfJ1rPjC-113" source="Rx_zeWfW__smRfJ1rPjC-119" target="Rx_zeWfW__smRfJ1rPjC-124" edge="1">
          <mxGeometry relative="1" as="geometry" />
        </mxCell>
        <mxCell id="Rx_zeWfW__smRfJ1rPjC-115" style="edgeStyle=orthogonalEdgeStyle;rounded=0;orthogonalLoop=1;jettySize=auto;html=1;entryX=1;entryY=0.5;entryDx=0;entryDy=0;" parent="Rx_zeWfW__smRfJ1rPjC-113" source="Rx_zeWfW__smRfJ1rPjC-124" target="Rx_zeWfW__smRfJ1rPjC-122" edge="1">
          <mxGeometry relative="1" as="geometry" />
        </mxCell>
        <mxCell id="Rx_zeWfW__smRfJ1rPjC-116" style="edgeStyle=orthogonalEdgeStyle;rounded=0;orthogonalLoop=1;jettySize=auto;html=1;entryX=0.5;entryY=0;entryDx=0;entryDy=0;" parent="Rx_zeWfW__smRfJ1rPjC-113" source="Rx_zeWfW__smRfJ1rPjC-124" target="Rx_zeWfW__smRfJ1rPjC-126" edge="1">
          <mxGeometry relative="1" as="geometry" />
        </mxCell>
        <mxCell id="Rx_zeWfW__smRfJ1rPjC-119" value="Validate" style="html=1;dashed=0;whiteSpace=wrap;" parent="Rx_zeWfW__smRfJ1rPjC-113" vertex="1">
          <mxGeometry x="170" y="270" width="100" height="50" as="geometry" />
        </mxCell>
        <mxCell id="Rx_zeWfW__smRfJ1rPjC-121" value="" style="edgeStyle=orthogonalEdgeStyle;rounded=0;orthogonalLoop=1;jettySize=auto;html=1;" parent="Rx_zeWfW__smRfJ1rPjC-113" source="Rx_zeWfW__smRfJ1rPjC-122" target="Rx_zeWfW__smRfJ1rPjC-132" edge="1">
          <mxGeometry relative="1" as="geometry" />
        </mxCell>
        <mxCell id="Rx_zeWfW__smRfJ1rPjC-122" value="Show error messages" style="html=1;dashed=0;whiteSpace=wrap;" parent="Rx_zeWfW__smRfJ1rPjC-113" vertex="1">
          <mxGeometry x="20" y="377.5" width="100" height="50" as="geometry" />
        </mxCell>
        <mxCell id="Rx_zeWfW__smRfJ1rPjC-124" value="Validated?" style="rhombus;whiteSpace=wrap;html=1;dashed=0;" parent="Rx_zeWfW__smRfJ1rPjC-113" vertex="1">
          <mxGeometry x="175" y="360" width="90" height="85" as="geometry" />
        </mxCell>
        <mxCell id="Rx_zeWfW__smRfJ1rPjC-125" style="edgeStyle=orthogonalEdgeStyle;rounded=0;orthogonalLoop=1;jettySize=auto;html=1;" parent="Rx_zeWfW__smRfJ1rPjC-113" source="Rx_zeWfW__smRfJ1rPjC-126" target="Rx_zeWfW__smRfJ1rPjC-129" edge="1">
          <mxGeometry relative="1" as="geometry" />
        </mxCell>
        <mxCell id="Rx_zeWfW__smRfJ1rPjC-126" value="Show success message" style="html=1;dashed=0;whiteSpace=wrap;" parent="Rx_zeWfW__smRfJ1rPjC-113" vertex="1">
          <mxGeometry x="170" y="490" width="100" height="50" as="geometry" />
        </mxCell>
        <mxCell id="Rx_zeWfW__smRfJ1rPjC-127" value="yes" style="text;html=1;align=center;verticalAlign=middle;resizable=0;points=[];autosize=1;strokeColor=none;fillColor=none;" parent="Rx_zeWfW__smRfJ1rPjC-113" vertex="1">
          <mxGeometry x="220" y="448" width="40" height="30" as="geometry" />
        </mxCell>
        <mxCell id="Rx_zeWfW__smRfJ1rPjC-128" value="no" style="text;html=1;align=center;verticalAlign=middle;resizable=0;points=[];autosize=1;strokeColor=none;fillColor=none;" parent="Rx_zeWfW__smRfJ1rPjC-113" vertex="1">
          <mxGeometry x="131" y="375" width="40" height="30" as="geometry" />
        </mxCell>
        <mxCell id="Rx_zeWfW__smRfJ1rPjC-129" value="" style="ellipse;html=1;shape=endState;fillColor=#000000;strokeColor=#ff0000;" parent="Rx_zeWfW__smRfJ1rPjC-113" vertex="1">
          <mxGeometry x="205" y="580" width="30" height="30" as="geometry" />
        </mxCell>
        <mxCell id="Rx_zeWfW__smRfJ1rPjC-130" style="edgeStyle=orthogonalEdgeStyle;rounded=0;orthogonalLoop=1;jettySize=auto;html=1;entryX=0;entryY=0.5;entryDx=0;entryDy=0;exitX=0.5;exitY=1;exitDx=0;exitDy=0;" parent="Rx_zeWfW__smRfJ1rPjC-113" source="Rx_zeWfW__smRfJ1rPjC-132" target="Rx_zeWfW__smRfJ1rPjC-129" edge="1">
          <mxGeometry relative="1" as="geometry" />
        </mxCell>
        <mxCell id="Rx_zeWfW__smRfJ1rPjC-132" value="Try again?" style="rhombus;whiteSpace=wrap;html=1;dashed=0;" parent="Rx_zeWfW__smRfJ1rPjC-113" vertex="1">
          <mxGeometry x="30" y="478" width="80" height="80" as="geometry" />
        </mxCell>
        <mxCell id="Rx_zeWfW__smRfJ1rPjC-135" value="no" style="text;html=1;align=center;verticalAlign=middle;resizable=0;points=[];autosize=1;strokeColor=none;fillColor=none;" parent="Rx_zeWfW__smRfJ1rPjC-113" vertex="1">
          <mxGeometry x="121" y="568" width="40" height="30" as="geometry" />
        </mxCell>
        <mxCell id="Rx_zeWfW__smRfJ1rPjC-139" value="Show form" style="html=1;dashed=0;whiteSpace=wrap;" parent="Rx_zeWfW__smRfJ1rPjC-113" vertex="1">
          <mxGeometry x="91" y="110" width="100" height="50" as="geometry" />
        </mxCell>
        <mxCell id="Rx_zeWfW__smRfJ1rPjC-133" value="CRUD Management AD" style="text;align=center;verticalAlign=middle;resizable=0;points=[];autosize=1;strokeColor=none;fillColor=none;fontStyle=1;fontSize=32;html=1;imageAspect=1;" parent="1" vertex="1">
          <mxGeometry x="1535" y="70" width="360" height="50" as="geometry" />
        </mxCell>
        <mxCell id="Rx_zeWfW__smRfJ1rPjC-136" style="edgeStyle=orthogonalEdgeStyle;rounded=0;orthogonalLoop=1;jettySize=auto;html=1;entryX=0.5;entryY=0;entryDx=0;entryDy=0;" parent="1" source="Rx_zeWfW__smRfJ1rPjC-112" target="Rx_zeWfW__smRfJ1rPjC-117" edge="1">
          <mxGeometry relative="1" as="geometry" />
        </mxCell>
        <mxCell id="Rx_zeWfW__smRfJ1rPjC-120" value="" style="edgeStyle=orthogonalEdgeStyle;rounded=0;orthogonalLoop=1;jettySize=auto;html=1;exitX=1;exitY=0.5;exitDx=0;exitDy=0;" parent="1" source="Rx_zeWfW__smRfJ1rPjC-137" target="Rx_zeWfW__smRfJ1rPjC-119" edge="1">
          <mxGeometry relative="1" as="geometry" />
        </mxCell>
        <mxCell id="Rx_zeWfW__smRfJ1rPjC-141" style="edgeStyle=orthogonalEdgeStyle;rounded=0;orthogonalLoop=1;jettySize=auto;html=1;entryX=1;entryY=0.5;entryDx=0;entryDy=0;" parent="1" source="Rx_zeWfW__smRfJ1rPjC-139" target="Rx_zeWfW__smRfJ1rPjC-118" edge="1">
          <mxGeometry relative="1" as="geometry">
            <Array as="points">
              <mxPoint x="1810" y="355" />
            </Array>
          </mxGeometry>
        </mxCell>
        <mxCell id="Rx_zeWfW__smRfJ1rPjC-144" value="Master data pages, user, employee, department, employee position, etc" style="text;html=1;align=center;verticalAlign=middle;resizable=0;points=[];autosize=1;strokeColor=none;fillColor=none;" parent="1" vertex="1">
          <mxGeometry x="1490" y="110" width="400" height="30" as="geometry" />
        </mxCell>
        <mxCell id="wDlmQjFxlzqn5Fyg5-nU-1" value="Officer" style="swimlane;whiteSpace=wrap;html=1;startSize=23;" vertex="1" parent="1">
          <mxGeometry x="2110" y="140" width="200" height="630" as="geometry" />
        </mxCell>
        <mxCell id="Z0zh9-bEOqYS9PJS0kEo-9" style="edgeStyle=orthogonalEdgeStyle;rounded=0;orthogonalLoop=1;jettySize=auto;html=1;entryX=0.5;entryY=0;entryDx=0;entryDy=0;" edge="1" parent="wDlmQjFxlzqn5Fyg5-nU-1" source="wDlmQjFxlzqn5Fyg5-nU-2" target="Z0zh9-bEOqYS9PJS0kEo-1">
          <mxGeometry relative="1" as="geometry" />
        </mxCell>
        <mxCell id="wDlmQjFxlzqn5Fyg5-nU-2" value="" style="ellipse;html=1;shape=startState;fillColor=#000000;strokeColor=#ff0000;" vertex="1" parent="wDlmQjFxlzqn5Fyg5-nU-1">
          <mxGeometry x="85" y="50" width="30" height="30" as="geometry" />
        </mxCell>
        <mxCell id="Z0zh9-bEOqYS9PJS0kEo-1" value="Fill Add Schedule Form" style="html=1;dashed=0;whiteSpace=wrap;" vertex="1" parent="wDlmQjFxlzqn5Fyg5-nU-1">
          <mxGeometry x="50" y="120" width="100" height="50" as="geometry" />
        </mxCell>
        <mxCell id="wDlmQjFxlzqn5Fyg5-nU-7" value="Employee Schedule" style="text;align=center;verticalAlign=middle;resizable=0;points=[];autosize=1;strokeColor=none;fillColor=none;fontStyle=1;fontSize=32;html=1;imageAspect=1;" vertex="1" parent="1">
          <mxGeometry x="2140" y="70" width="310" height="50" as="geometry" />
        </mxCell>
        <mxCell id="Z0zh9-bEOqYS9PJS0kEo-2" value="System" style="swimlane;whiteSpace=wrap;html=1;startSize=23;" vertex="1" parent="1">
          <mxGeometry x="2310" y="140" width="200" height="630" as="geometry" />
        </mxCell>
      </root>
    </mxGraphModel>
  </diagram>
</mxfile>
